<svg width="31" height="31" fill="none" xmlns="http://www.w3.org/2000/svg"><g clip-path="url(#clip02)" fill="#8E24AA"><path d="M29.638 17.783c.917-7.715-.44-12.585-2.887-14.788l.001-.001c-3.95-3.762-17.29-4.319-22.016.169-2.122 2.195-2.87 5.417-2.952 9.405-.082 3.99-.179 11.464 6.786 13.491h.006l-.006 3.097s-.048 1.254.753 1.506c.917.297 1.332-.285 4.182-3.69 4.767.413 8.428-.534 8.844-.672.962-.323 6.409-1.043 7.29-8.517zm-15.663 7.01s-3.017 3.762-3.955 4.739c-.307.317-.644.288-.639-.342 0-.413.023-5.14.023-5.14-5.905-1.692-5.556-8.057-5.492-11.386.064-3.33.673-6.058 2.47-7.895 4.146-3.887 15.841-3.018 18.821-.218 3.643 3.23 2.346 12.354 2.354 12.665-.749 6.238-5.162 6.634-5.974 6.904-.347.115-3.566.944-7.608.673z"/><path d="M15.644 5.5c-.493 0-.493.768 0 .774 3.824.03 6.972 2.695 7.007 7.583 0 .516.755.51.749-.006h-.002c-.04-5.267-3.479-8.322-7.754-8.351z"/><path d="M20.673 13.047c-.011.51.743.534.75.018.062-2.905-1.729-5.297-5.094-5.55-.493-.035-.544.74-.053.775 2.919.222 4.456 2.213 4.397 4.757zM19.867 16.35c-.633-.366-1.276-.138-1.543.222l-.556.72c-.283.367-.812.318-.812.318-3.858-1.02-4.89-5.057-4.89-5.057s-.047-.547.306-.84l.697-.576c.348-.276.568-.942.213-1.596-.947-1.711-1.583-2.301-1.907-2.755-.34-.426-.852-.522-1.385-.234H9.98c-1.107.648-2.32 1.86-1.932 3.108.662 1.316 1.878 5.51 5.754 8.68 1.821 1.499 4.704 3.035 5.928 3.39l.011.017c1.206.402 2.378-.858 3.004-1.998v-.009c.278-.552.186-1.074-.22-1.416-.72-.701-1.805-1.476-2.657-1.973z"/><path d="M16.856 10.372c1.23.072 1.827.715 1.89 2.034.024.516.773.48.75-.036-.082-1.722-.98-2.682-2.599-2.772-.493-.03-.539.745-.04.774z"/></g><defs><clipPath id="clip02"><path fill="#fff" d="M0 0h30.72v30.72H0z"/></clipPath></defs></svg>