<svg width="31" height="64" viewBox="0 0 31 64" fill="none" xmlns="http://www.w3.org/2000/svg">
<path id="vector" d="M29.1018 28.1461L7.43513 1.56354C7.03109 1.06784 6.55144 0.674625 6.02354 0.406353C5.49565 0.138081 4.92985 0 4.35846 0C3.20449 0 2.09777 0.562426 1.28179 1.56354C0.877758 2.05924 0.557262 2.64773 0.3386 3.2954C0.119939 3.94306 0.0073967 4.63723 0.0073967 5.33826C0.0073967 6.75405 0.465809 8.11187 1.28179 9.11298L19.9151 31.9208L1.28179 54.7286C0.875635 55.2229 0.553261 55.8109 0.333263 56.4587C0.113266 57.1066 0 57.8015 0 58.5033C0 59.2052 0.113266 59.9001 0.333263 60.5479C0.553261 61.1958 0.875635 61.7838 1.28179 62.2781C1.68463 62.7764 2.1639 63.1719 2.69196 63.4418C3.22002 63.7117 3.78641 63.8507 4.35846 63.8507C4.93051 63.8507 5.4969 63.7117 6.02496 63.4418C6.55302 63.1719 7.03229 62.7764 7.43513 62.2781L29.1018 35.6955C29.5079 35.2013 29.8303 34.6133 30.0503 33.9654C30.2703 33.3175 30.3836 32.6226 30.3836 31.9208C30.3836 31.219 30.2703 30.5241 30.0503 29.8762C29.8303 29.2283 29.5079 28.6403 29.1018 28.1461Z" fill="white"/>
</svg>
