<svg width="31" height="64" viewBox="0 0 31 64" fill="none" xmlns="http://www.w3.org/2000/svg">
<path id="Vector" d="M1.28179 35.7045L22.9484 62.287C23.3525 62.7827 23.8321 63.176 24.36 63.4442C24.8879 63.7125 25.4537 63.8506 26.0251 63.8506C27.1791 63.8506 28.2858 63.2882 29.1018 62.287C29.5058 61.7913 29.8263 61.2029 30.045 60.5552C30.2636 59.9075 30.3762 59.2134 30.3762 58.5123C30.3762 57.0965 29.9178 55.7387 29.1018 54.7376L10.4685 31.9298L29.1018 9.12196C29.5079 8.62772 29.8303 8.03971 30.0503 7.39185C30.2703 6.74398 30.3836 6.04908 30.3836 5.34724C30.3836 4.64541 30.2703 3.9505 30.0503 3.30264C29.8303 2.65478 29.5079 2.06676 29.1018 1.57252C28.6989 1.07422 28.2197 0.678688 27.6916 0.408779C27.1636 0.138866 26.5972 -9.19589e-05 26.0251 -9.20202e-05C25.4531 -9.20816e-05 24.8867 0.138866 24.3586 0.408778C23.8306 0.678687 23.3513 1.07422 22.9485 1.57252L1.28179 28.1551C0.875634 28.6493 0.553248 29.2373 0.333251 29.8852C0.113253 30.533 -9.11954e-06 31.2279 -9.16955e-06 31.9298C-9.21956e-06 32.6316 0.113253 33.3265 0.33325 33.9744C0.553248 34.6222 0.875633 35.2103 1.28179 35.7045Z" fill="#FF4405"/>
</svg>
