<svg width="99" height="22" viewBox="0 0 99 22" fill="none" xmlns="http://www.w3.org/2000/svg">
<g clip-path="url(#clip0_15_636)">
<path d="M98.4513 9.94477L88.9611 0.431257C88.3828 -0.148472 87.4486 -0.148472 86.8702 0.431257C86.2919 1.01099 86.2919 1.94747 86.8702 2.5272L93.8248 9.51369H68.4829C67.6673 9.51369 67 10.1826 67 11.0002C67 11.8177 67.6673 12.4867 68.4829 12.4867H93.8248L86.8702 19.4583C86.2919 20.038 86.2919 20.9745 86.8702 21.5542C87.1668 21.8515 87.5375 21.9853 87.9231 21.9853C88.3086 21.9853 88.6793 21.8367 88.9759 21.5542L98.4662 12.0407C99.0297 11.4759 99.0297 10.5245 98.4513 9.94477Z" fill="#E5E5E5"/>
</g>
<path d="M2 11H90" stroke="#E5E5E5" stroke-width="3" stroke-linecap="round" stroke-linejoin="round"/>
<defs>
<clipPath id="clip0_15_636">
<rect width="32" height="22" fill="white" transform="translate(67)"/>
</clipPath>
</defs>
</svg>
