<svg width="110" height="110" viewBox="0 0 110 110" fill="none" xmlns="http://www.w3.org/2000/svg">
<g clip-path="url(#clip0_15_406)">
<path d="M106.797 28.6154H103.166C93.5014 10.9949 75.1364 0.0911255 55.0001 0.0911255C34.8747 0.0911255 16.499 10.9985 6.835 28.6154H3.20307C1.43687 28.6154 0 30.0523 0 31.8185V78.1815C0 79.9477 1.43708 81.3845 3.20307 81.3845H6.835C16.499 99.0008 34.8769 109.909 55.0001 109.909C75.1364 109.909 93.5016 99.0051 103.166 81.3845H106.797C108.563 81.3845 110 79.9477 110 78.1815V31.8185C110 30.0523 108.563 28.6154 106.797 28.6154ZM3.22456 31.84H69.861L66.6365 35.0645H15.853C14.9624 35.0645 14.2408 35.7864 14.2408 36.6768C14.2408 40.0841 11.4687 42.8562 8.06141 42.8562C7.17079 42.8562 6.44913 43.578 6.44913 44.4684V65.5315C6.44913 66.4219 7.17079 67.1438 8.06141 67.1438C11.4689 67.1438 14.2408 69.9158 14.2408 73.3231C14.2408 74.2135 14.9624 74.9354 15.853 74.9354H26.7656L23.541 78.16H3.22456V31.84ZM73.0856 28.6154H20.9902C29.095 18.1947 41.5025 12.0014 54.7151 11.9154C64.1562 11.8541 73.1413 14.8027 80.7038 20.4424C80.805 20.5179 80.8325 20.6185 80.8375 20.6894C80.842 20.75 80.8342 20.8668 80.7345 20.9667L73.0856 28.6154ZM29.9902 71.7109H17.3271C16.6512 67.8147 13.57 64.7333 9.67369 64.0577V45.9423C13.57 45.2666 16.6512 42.1852 17.3271 38.2889H44.1421C38.6819 41.8488 35.0646 48.0094 35.0646 54.9999C35.0646 58.2657 35.8617 61.463 37.377 64.3238L29.9902 71.7109ZM106.775 78.16H102.182C102.182 78.16 102.182 78.16 102.181 78.16H53.5991C52.7085 78.16 51.9869 78.8819 51.9869 79.7723C51.9869 80.6627 52.7085 81.3845 53.5991 81.3845H89.0096C86.6032 84.4769 83.7918 87.2287 80.6197 89.5874C79.9053 90.1188 79.7566 91.1287 80.288 91.8433C80.6044 92.269 81.0905 92.4936 81.583 92.4936C81.9175 92.4936 82.2548 92.39 82.5439 92.175C86.6131 89.1491 90.1317 85.5214 93.0145 81.3845H99.4533C90.1485 97.0576 73.356 106.684 54.9999 106.684C36.6558 106.684 19.8528 97.054 10.5478 81.3845H16.9634C17.2555 81.8044 17.5528 82.2223 17.8579 82.6314C18.4759 83.4601 19.4231 83.9786 20.4566 84.0534C20.5433 84.0596 20.6299 84.0626 20.7161 84.0626C21.6624 84.0626 22.5732 83.6882 23.2472 83.0142L47.4243 58.8373C48.054 58.2077 48.054 57.1868 47.4243 56.5573C46.7947 55.9279 45.774 55.9275 45.1441 56.5573L39.7858 61.9157C38.804 59.7561 38.2893 57.4007 38.2893 55.0001C38.2893 45.7856 45.7858 38.2891 55.0001 38.2891C57.4005 38.2891 59.7557 38.8037 61.9155 39.7855L50.0025 51.6986C49.3728 52.3282 49.3728 53.3491 50.0025 53.9785C50.3174 54.2933 50.7301 54.4508 51.1427 54.4508C51.5552 54.4508 51.9679 54.2935 52.2829 53.9785L83.0145 23.2469C83.7499 22.5115 84.1287 21.4943 84.0534 20.4566C83.9784 19.423 83.4601 18.4759 82.6312 17.8576C74.5842 11.8563 65.0388 8.68996 55.004 8.68996C54.9012 8.68996 54.7967 8.69018 54.694 8.69082C39.6727 8.78842 25.6241 16.2277 16.9904 28.6154H10.5476C19.8526 12.9453 36.6543 3.31569 55.0001 3.31569C73.3563 3.31569 90.1487 12.9423 99.4535 28.6154H93.0368C92.7441 28.1947 92.4468 27.7766 92.1426 27.3686C91.5245 26.5399 90.5774 26.0214 89.5438 25.9465C88.5025 25.8717 87.4887 26.2501 86.7533 26.9857L26.9855 86.753C26.2501 87.4884 25.8713 88.5057 25.9466 89.5433C26.0214 90.5767 26.5397 91.5241 27.3686 92.1423C35.4158 98.1437 44.9612 101.31 54.996 101.31C55.0988 101.31 55.2033 101.31 55.306 101.309C62.6632 101.261 69.9913 99.421 76.4983 95.9873C77.2859 95.5718 77.5873 94.5964 77.1718 93.809C76.7565 93.0216 75.7816 92.7202 74.9935 93.1355C68.9423 96.3287 62.127 98.0401 55.2849 98.0846C45.8449 98.1508 36.8585 95.1973 29.2962 89.5575C29.195 89.4821 29.1675 89.3815 29.1625 89.3105C29.158 89.2497 29.1658 89.133 29.2655 89.033L36.914 81.3845H46.728C47.6186 81.3845 48.3403 80.6627 48.3403 79.7723C48.3403 78.8819 47.6186 78.16 46.728 78.16H40.1385L43.3631 74.9354H94.1467C95.0374 74.9354 95.759 74.2135 95.759 73.3231C95.759 69.9158 98.5311 67.1438 101.938 67.1438C102.829 67.1438 103.551 66.4219 103.551 65.5315V44.4684C103.551 43.578 102.829 42.8562 101.938 42.8562C98.5309 42.8562 95.759 40.0841 95.759 36.6768C95.759 35.7864 95.0374 35.0645 94.1467 35.0645H83.2346L86.4592 31.84H106.775V78.16ZM48.0845 70.2144L70.2145 48.0847C71.1964 50.2445 71.7111 52.5997 71.7111 55.0001C71.7111 64.2146 64.2146 71.7111 55.0001 71.7111C52.5997 71.7108 50.2443 71.1964 48.0845 70.2144ZM74.9357 55.0001C74.9357 51.7347 74.1385 48.5374 72.623 45.6759L80.01 38.2891H92.6731C93.349 42.1855 96.4302 45.2666 100.327 45.9425V64.0579C96.4302 64.7335 93.349 67.8149 92.6731 71.7113H65.8581C71.3183 68.1509 74.9357 61.9903 74.9357 55.0001Z" fill="#404040"/>
</g>
<defs>
<clipPath id="clip0_15_406">
<rect width="110" height="110" fill="white"/>
</clipPath>
</defs>
</svg>
