<svg width="110" height="110" viewBox="0 0 110 110" fill="none" xmlns="http://www.w3.org/2000/svg">
<path d="M105.01 100.314C104.514 98.4047 104.514 96.391 105.01 94.4846C110.722 93.7026 110.743 85.6501 105.043 84.8328C107.639 82.5467 109.294 79.2294 109.33 75.5435C109.377 70.6358 106.46 66.0308 102.003 63.971C104.318 60.6789 101.656 56.0861 97.684 56.3251C97.1986 54.4378 97.198 52.4466 97.684 50.5569C104.105 50.8931 104.527 40.84 98.0273 40.84H86.2812L81.6841 25.362L103.721 19.5736C107.521 18.5756 107.526 12.9982 103.721 11.9988L60.9647 0.768714C57.0627 -0.256319 52.9378 -0.256319 49.0358 0.768714L33.1371 4.9449C31.1868 5.4571 31.9166 8.59665 33.9559 8.0619L49.8546 3.88571C53.221 3.00162 56.7797 3.00162 60.1462 3.88571L102.903 15.1162C103.591 15.2969 103.591 16.2763 102.903 16.457L69.9971 25.1001L59.6402 15.7092V11.9788C59.3768 5.61501 50.3088 5.61651 50.046 11.9788V16.5591C50.046 17.119 50.3367 17.6389 50.8139 17.932C52.9959 19.2715 55.5547 19.461 57.8701 18.4542L66.2768 26.077L60.1459 27.6873C56.7795 28.5714 53.2208 28.5714 49.8544 27.6873L7.09794 16.457C6.40979 16.2761 6.40957 15.2969 7.09794 15.1162L25.8016 10.2035C27.752 9.6913 27.022 6.5511 24.9829 7.0865L6.27916 11.9992C2.47981 12.9971 2.47444 18.5746 6.27916 19.574L28.3162 25.3622L23.7191 40.8402H19.836C12.8889 40.8402 7.18238 46.4374 7.11556 53.3174C7.08075 56.9191 8.63044 60.4119 11.3064 62.8192H5.52784C-0.596578 63.0291 -1.0383 71.6395 4.99029 72.5054C5.48745 74.4143 5.48745 76.4255 4.99029 78.3344C-0.721404 79.116 -0.743103 87.1689 4.95764 87.9862C2.361 90.2723 0.706037 93.5894 0.670158 97.2753C0.637501 100.661 1.93367 103.853 4.31976 106.263C6.70649 108.673 9.88493 110 13.2694 110H104.472C110.577 109.799 111.056 101.188 105.01 100.314ZM56.4173 15.5689C55.3877 15.9708 54.2955 15.9715 53.2685 15.5699V11.9788C53.3426 9.89476 56.3438 9.89605 56.4173 11.9788V15.5689ZM96.7307 72.5361C100.551 72.6921 100.56 78.1442 96.7307 78.3043H29.2559V72.5361H96.7307ZM26.033 91.9295L21.5915 94.2597V72.5361H26.033V91.9295ZM18.3688 78.3043H8.30216C8.68007 76.4016 8.68007 74.4388 8.30216 72.5361H18.3688V78.3043ZM19.1463 98.3035C19.6695 98.5966 20.1969 98.6125 20.7287 98.3516L28.0414 94.5151H101.699C101.322 96.4163 101.322 98.3804 101.699 100.283H13.2694C11.6795 100.283 10.386 98.9895 10.386 97.3992C10.386 95.8089 11.6795 94.5151 13.2694 94.5151H18.3686V96.9249C18.3688 97.4888 18.6638 98.0118 19.1463 98.3035ZM94.3798 56.3253H19.7148C18.1249 56.3253 16.8314 55.0315 16.8314 53.4412C16.8314 51.8509 18.1249 50.5571 19.7148 50.5571H63.3631C63.3225 51.7048 63.3285 53.3877 64.9482 53.3877H74.2218C75.8465 53.3877 75.8476 51.7054 75.807 50.5571H94.3803C94.0032 52.4602 94.003 54.4241 94.3798 56.3253ZM69.5852 39.3932C71.0052 39.3932 72.3568 44.432 72.5789 50.1652H66.5916C66.8135 44.432 68.1653 39.3932 69.5852 39.3932ZM99.6625 45.6987C99.6625 46.6007 98.9288 47.3344 98.0271 47.3344H75.5956C75.4897 46.2389 75.3487 45.1462 75.1532 44.0629H98.0271C98.9288 44.0631 99.6625 44.797 99.6625 45.6987ZM82.9193 40.8404H74.3482C73.5814 38.5837 72.5276 37.1405 71.1966 36.5209V28.117L78.5656 26.1814L82.9193 40.8404ZM31.4347 26.1814L49.0356 30.8045C52.9228 31.8254 57.0775 31.8254 60.9645 30.8045L67.9737 28.9635V36.5209C66.6425 37.1405 65.5889 38.5837 64.8221 40.8404H27.081L31.4347 26.1814ZM13.055 60.037C11.2786 58.2432 10.3138 55.8679 10.338 53.3488C10.3879 48.2286 14.6485 44.0631 19.836 44.0631H64.0171C63.8215 45.1464 63.6806 46.2391 63.5747 47.3346H19.7148C16.3477 47.3346 13.6087 50.0741 13.6087 53.4414C13.6087 56.8087 16.348 59.5482 19.7148 59.5482H98.0269C100.073 59.5482 100.167 62.8197 98.0269 62.8197H19.7148C17.1972 62.8194 14.832 61.8314 13.055 60.037ZM3.89243 67.6778C3.89243 66.7758 4.62613 66.0421 5.52784 66.0421H96.7309C101.872 66.0421 106.157 70.3692 106.107 75.5126C106.058 80.6328 101.797 84.7983 96.6095 84.7983H88.1581C86.1417 84.7983 86.0498 88.021 88.1581 88.021H104.472C105.374 88.021 106.108 88.7547 106.108 89.6566C106.108 90.5585 105.374 91.2922 104.472 91.2922H29.2557V88.0207H79.6656C81.682 88.0207 81.7739 84.798 79.6656 84.798H29.2557V81.5266H96.7307C100.098 81.5266 102.837 78.7871 102.837 75.4198C102.837 72.0525 100.098 69.313 96.7307 69.313H5.52784C4.62592 69.3134 3.89243 68.5795 3.89243 67.6778ZM5.52784 84.7983C3.36283 84.7211 3.36455 81.6033 5.52784 81.5268H18.3688V84.7983H5.52784ZM104.472 106.777H13.2694C10.7516 106.777 8.38638 105.789 6.60959 103.995C4.83324 102.201 3.86837 99.8257 3.89264 97.3066C3.94249 92.1864 8.20311 88.021 13.3906 88.021H18.3688V91.2924H13.2694C5.16668 91.6289 5.17291 103.173 13.2694 103.506H104.472C106.637 103.583 106.636 106.701 104.472 106.777Z" fill="#404040"/>
</svg>
