<svg width="110" height="110" viewBox="0 0 110 110" fill="none" xmlns="http://www.w3.org/2000/svg">
<g clip-path="url(#clip0_15_411)">
<path d="M28.496 20.0454H1.81834C1.09208 20.0454 0.435935 19.6138 0.148343 18.9472C-0.138572 18.2805 -0.00171988 17.5062 0.496231 16.9791L6.43912 10.6883L0.41561 3.38435C-0.0318679 2.84202 -0.126716 2.089 0.174087 1.4525C0.474212 0.816009 1.1141 0.40918 1.81834 0.40918H28.4963C29.0068 0.40918 29.4942 0.623942 29.8387 1.00028L37.1515 9.00001C37.7863 9.69511 37.7863 10.7588 37.1515 11.4539L29.8384 19.4539C29.4939 19.8303 29.0064 20.0454 28.496 20.0454ZM6.03703 16.409H27.6945L33.3454 10.2273L27.6945 4.04557H5.67458L10.2662 9.6128C10.8495 10.3204 10.815 11.3519 10.1856 12.0179L6.03703 16.409Z" fill="#404040"/>
<path d="M64.682 20.0454H38.0034C37.2771 20.0454 36.621 19.6138 36.3334 18.9472C36.0465 18.2806 36.1833 17.5062 36.6813 16.9791L42.6242 10.6883L36.6007 3.38438C36.1532 2.84205 36.0583 2.08903 36.3591 1.45253C36.6593 0.816036 37.2992 0.409546 38.0034 0.409546H64.6824C65.1929 0.409546 65.6793 0.624308 66.0238 1.00065L73.3382 9.00038C73.9741 9.69446 73.9741 10.7598 73.3382 11.4542L66.0235 19.454C65.6793 19.8303 65.1925 20.0454 64.682 20.0454ZM42.2221 16.409H63.8812L69.5328 10.2273L63.8812 4.0456H41.8596L46.4513 9.61283C47.0346 10.3205 47 11.3519 46.3707 12.0179L42.2221 16.409Z" fill="#404040"/>
<path d="M100.868 20.0454H74.1913C73.465 20.0454 72.8089 19.6138 72.5213 18.9472C72.2344 18.2806 72.3712 17.5062 72.8692 16.9791L78.8111 10.6883L72.7882 3.38438C72.3408 2.84104 72.2466 2.08903 72.5467 1.45253C72.8468 0.81502 73.4867 0.409546 74.191 0.409546H100.867C101.378 0.409546 101.864 0.624308 102.209 1.00065L109.523 9.00038C110.159 9.69446 110.159 10.7598 109.523 11.4542L102.209 19.454C101.864 19.8303 101.378 20.0454 100.868 20.0454ZM78.41 16.409H100.067L105.718 10.2273L100.067 4.0456H78.0472L82.6378 9.61283C83.2211 10.3205 83.1866 11.3512 82.5572 12.0179L78.41 16.409Z" fill="#404040"/>
<path d="M33.0382 56.8056H4.09098C3.08695 56.8056 2.27295 55.9916 2.27295 54.9876V25.8362C2.27295 24.8321 3.08695 24.0181 4.09098 24.0181H33.0382C34.0422 24.0181 34.8562 24.8321 34.8562 25.8362V54.9876C34.8562 55.9916 34.0422 56.8056 33.0382 56.8056ZM5.90901 53.1692H31.2198V27.6545H5.90901V53.1692Z" fill="#404040"/>
<path d="M33.0382 109.532H4.09098C3.08695 109.532 2.27295 108.719 2.27295 107.714V62.5968C2.27295 61.5927 3.08695 60.7787 4.09098 60.7787H33.0382C34.0422 60.7787 34.8562 61.5927 34.8562 62.5968V107.714C34.8562 108.719 34.0422 109.532 33.0382 109.532ZM5.90901 105.896H31.2198V64.4151H5.90901V105.896Z" fill="#404040"/>
<path d="M69.5454 41.9237C69.5444 41.9237 69.5427 41.9237 69.5421 41.9237L40.7043 41.8634C39.7009 41.8617 38.8896 41.0474 38.8896 40.0454V25.8362C38.8896 25.3531 39.0814 24.8907 39.4232 24.5489C39.7639 24.2088 40.2267 24.0181 40.7077 24.0181H40.7111L69.5488 24.0784C70.5522 24.0801 71.3635 24.8945 71.3635 25.8965V40.1053C71.3635 40.5884 71.1718 41.0507 70.83 41.3925C70.4892 41.733 70.0268 41.9237 69.5454 41.9237ZM42.5257 38.2307L67.7271 38.2839V27.7114L42.5257 27.6582V38.2307Z" fill="#404040"/>
<path d="M69.5454 109.591C69.5444 109.591 69.5427 109.591 69.5421 109.591L40.7043 109.532C39.7009 109.531 38.8896 108.717 38.8896 107.714V47.6546C38.8896 47.1715 39.0814 46.7091 39.4232 46.3674C39.7639 46.0273 40.2267 45.8365 40.7077 45.8365H40.7111L69.5488 45.8968C70.5522 45.8985 71.3635 46.7129 71.3635 47.7149V107.772C71.3635 108.256 71.1718 108.719 70.83 109.06C70.4892 109.399 70.0268 109.591 69.5454 109.591ZM42.5257 105.9L67.7271 105.951V49.5295L42.5257 49.4763V105.9Z" fill="#404040"/>
<path d="M105.909 63.7421H76.8439C75.8399 63.7421 75.0259 62.9281 75.0259 61.924V25.8362C75.0259 24.8321 75.8399 24.0181 76.8439 24.0181H105.909C106.913 24.0181 107.727 24.8321 107.727 25.8362V61.9237C107.727 62.9281 106.913 63.7421 105.909 63.7421ZM78.6623 60.1057H104.091V27.6545H78.6623V60.1057Z" fill="#404040"/>
<path d="M105.909 109.532H76.8439C75.8399 109.532 75.0259 108.719 75.0259 107.714V69.5332C75.0259 68.5292 75.8399 67.7152 76.8439 67.7152H105.909C106.913 67.7152 107.727 68.5292 107.727 69.5332V107.714C107.727 108.719 106.913 109.532 105.909 109.532ZM78.6623 105.896H104.091V71.3513H78.6623V105.896Z" fill="#404040"/>
<path d="M45.9091 31.3513H54.9999V34.9877H45.9091V31.3513Z" fill="#404040"/>
<path d="M58.6366 31.3513H64.091V34.9877H58.6366V31.3513Z" fill="#404040"/>
<path d="M9.54541 31.3513H27.7274V34.9877H9.54541V31.3513Z" fill="#404040"/>
<path d="M9.54541 38.624H18.6362V42.2604H9.54541V38.624Z" fill="#404040"/>
<path d="M22.2726 38.624H27.727V42.2604H22.2726V38.624Z" fill="#404040"/>
<path d="M9.54541 45.8969H14.9998V49.5332H9.54541V45.8969Z" fill="#404040"/>
<path d="M18.6366 45.8969H27.7274V49.5332H18.6366V45.8969Z" fill="#404040"/>
<path d="M9.54541 67.7148H27.7274V71.3512H9.54541V67.7148Z" fill="#404040"/>
<path d="M9.54541 96.805H27.7274V100.441H9.54541V96.805Z" fill="#404040"/>
<path d="M9.54541 74.9876H22.2726V78.624H9.54541V74.9876Z" fill="#404040"/>
<path d="M22.2726 82.2604H27.727V85.8958H22.2726V82.2604Z" fill="#404040"/>
<path d="M9.54541 82.2604H18.6362V85.8958H9.54541V82.2604Z" fill="#404040"/>
<path d="M16.8182 89.5322H27.7274V93.1686H16.8182V89.5322Z" fill="#404040"/>
<path d="M9.54541 89.5322H13.1818V93.1686H9.54541V89.5322Z" fill="#404040"/>
<path d="M45.9091 53.1693H64.091V56.8056H45.9091V53.1693Z" fill="#404040"/>
<path d="M45.9091 60.4421H64.091V64.0785H45.9091V60.4421Z" fill="#404040"/>
<path d="M45.9091 67.7148H64.091V71.3512H45.9091V67.7148Z" fill="#404040"/>
<path d="M45.9091 74.9876H64.091V78.624H45.9091V74.9876Z" fill="#404040"/>
<path d="M45.9091 82.2604H64.091V85.8958H45.9091V82.2604Z" fill="#404040"/>
<path d="M45.9091 89.5322H64.091V93.1686H45.9091V89.5322Z" fill="#404040"/>
<path d="M45.9091 96.805H64.091V100.441H45.9091V96.805Z" fill="#404040"/>
<path d="M82.2729 31.3513H93.1821V34.9877H82.2729V31.3513Z" fill="#404040"/>
<path d="M96.8182 31.3513H100.455V34.9877H96.8182V31.3513Z" fill="#404040"/>
<path d="M82.2729 38.624H85.9093V42.2604H82.2729V38.624Z" fill="#404040"/>
<path d="M89.5454 38.624H100.455V42.2604H89.5454V38.624Z" fill="#404040"/>
<path d="M82.2729 45.8969H100.455V49.5332H82.2729V45.8969Z" fill="#404040"/>
<path d="M82.2729 53.1693H100.455V56.8056H82.2729V53.1693Z" fill="#404040"/>
<path d="M82.2729 74.9876H100.455V78.624H82.2729V74.9876Z" fill="#404040"/>
<path d="M82.2729 82.2604H100.455V85.8958H82.2729V82.2604Z" fill="#404040"/>
<path d="M82.2729 89.5322H100.455V93.1686H82.2729V89.5322Z" fill="#404040"/>
<path d="M82.2729 96.805H93.1821V100.441H82.2729V96.805Z" fill="#404040"/>
</g>
<defs>
<clipPath id="clip0_15_411">
<rect width="110" height="110" fill="white"/>
</clipPath>
</defs>
</svg>
