<svg width="1204" height="1242" viewBox="0 0 1204 1242" fill="none" xmlns="http://www.w3.org/2000/svg">
<g clip-path="url(#clip0_15_459)">
<path d="M312.481 960.69L291.245 962.305L292.9 963.108L292.364 963.579L310.75 962.179L312.481 960.69ZM1023.06 666.95L1023.87 665.504C913.875 839.455 791.723 848.574 204.708 892.368L193.191 872.054C165.812 892.61 129.365 920.017 102.014 940.584C151.181 954.424 186.288 964.596 258.781 988.986L246.893 967.19C259.569 966.181 276.478 964.809 289.174 963.824L290.942 962.332C277.186 963.411 258.876 964.856 245.13 965.973L244.079 966.054L255.188 986.339C214.663 972.81 176.398 960.03 105.667 940.182C131.738 920.551 166.508 894.397 192.598 874.79L203.355 893.772L204.406 893.692C770.229 852.176 922.329 841.029 1023.06 666.95Z" fill="#3D3D3D"/>
<path d="M307.021 951.059L305.185 950.156L307.989 947.776L309.834 948.665L307.021 951.059ZM312.628 946.299L310.783 945.41L313.577 943.044L315.413 943.947L312.628 946.299ZM318.188 941.557L316.343 940.668L319.099 938.305L320.944 939.194L318.188 941.557ZM323.691 936.845L321.846 935.956L324.593 933.607L326.409 934.486L323.691 936.845ZM329.175 932.16L327.359 931.282L330.096 928.946L331.913 929.825L329.175 932.16ZM334.641 927.503L332.825 926.625L335.543 924.317L337.36 925.195L334.641 927.503ZM340.05 922.877L338.234 921.998L340.943 919.704L342.76 920.582L340.05 922.877ZM345.45 918.264L343.634 917.385L346.305 915.094L348.122 915.973L345.45 918.264ZM374.17 922.442L375.628 922.339L376.368 923.595L372.969 923.833L371.691 921.648L373.632 921.515L374.17 922.442ZM350.813 913.706L348.996 912.827L351.658 910.55L353.446 911.418L350.813 913.706ZM381.206 923.23L380.466 921.974L385.295 921.622L386.035 922.879L381.206 923.23ZM369.693 918.231L367.713 914.838L369.654 914.704L371.634 918.097L369.693 918.231ZM356.137 909.151L354.349 908.283L357.002 906.019L358.79 906.887L356.137 909.151ZM390.883 922.551L390.143 921.295L394.962 920.957L395.711 922.2L390.883 922.551ZM365.705 911.434L363.716 908.055L365.657 907.921L367.646 911.301L365.705 911.434ZM400.492 921.865L399.743 920.623L404.534 920.274L405.283 921.517L400.492 921.865ZM361.434 904.637L359.646 903.769L362.035 901.734L363.716 904.576L361.775 904.71L361.65 904.477L361.434 904.637ZM410.102 921.18L409.353 919.937L414.144 919.589L414.893 920.832L410.102 921.18ZM419.646 920.487L418.897 919.244L423.65 918.899L424.399 920.142L419.646 920.487ZM429.161 919.784L428.412 918.541L433.165 918.196L433.914 919.439L429.161 919.784ZM438.648 919.07L437.899 917.827L442.623 917.472L443.372 918.715L438.648 919.07ZM448.096 918.36L447.347 917.117L452.072 916.762L452.83 917.992L448.096 918.36ZM457.526 917.626L456.767 916.397L461.463 916.032L462.222 917.261L457.526 917.626ZM466.918 916.896L466.159 915.666L470.855 915.301L471.613 916.53L466.918 916.896ZM476.281 916.155L475.522 914.925L480.19 914.55L480.948 915.779L476.281 916.155ZM485.625 915.39L484.866 914.161L489.534 913.785L490.292 915.014L485.625 915.39ZM494.94 914.615L494.173 913.399L498.821 912.999L499.589 914.215L494.94 914.615ZM504.227 913.829L503.46 912.613L508.108 912.214L508.876 913.429L504.227 913.829ZM513.467 913.009L512.699 911.794L517.319 911.384L518.087 912.599L513.467 913.009ZM522.716 912.176L521.948 910.96L526.539 910.54L527.307 911.755L522.716 912.176ZM531.936 911.332L531.159 910.13L535.759 909.696L536.536 910.898L531.936 911.332ZM541.118 910.44L540.341 909.238L544.913 908.794L545.69 909.996L541.118 910.44ZM550.3 909.548L549.522 908.346L554.104 907.889L554.881 909.09L550.3 909.548ZM559.463 908.633L558.685 907.431L563.238 906.963L563.996 908.14L559.463 908.633ZM568.587 907.669L567.8 906.481L572.363 905.999L573.149 907.187L568.587 907.669ZM577.721 906.692L576.934 905.503L581.477 904.997L582.236 906.175L577.721 906.692ZM586.807 905.68L586.049 904.502L590.602 903.982L591.369 905.147L586.807 905.68ZM595.912 904.641L595.116 903.466L599.64 902.937L600.436 904.111L595.912 904.641ZM605.007 903.564L604.211 902.39L608.745 901.846L609.512 903.011L605.007 903.564ZM614.055 902.453L613.287 901.289L617.802 900.722L618.578 901.872L614.055 902.453ZM623.093 901.305L622.287 900.144L626.811 899.563L627.588 900.713L623.093 901.305ZM632.158 900.115L631.382 898.965L635.886 898.36L636.663 899.51L632.158 900.115ZM641.177 898.891L640.39 897.755L644.904 897.136L645.69 898.273L641.177 898.891ZM650.194 897.616L649.408 896.479L653.912 895.823L654.698 896.96L650.194 897.616ZM659.183 896.28L658.397 895.143L662.853 894.452L663.649 895.575L659.183 896.28ZM668.067 894.888L667.3 893.775L671.737 893.06L672.504 894.173L668.067 894.888ZM676.903 893.411L676.136 892.298L680.526 891.549L681.293 892.662L676.903 893.411ZM685.663 891.889L684.915 890.8L689.267 890.003L690.015 891.092L685.663 891.889ZM694.347 890.271L693.599 889.182L697.902 888.351L698.65 889.44L694.347 890.271ZM702.935 888.585L702.206 887.52L706.49 886.664L707.219 887.729L702.935 888.585ZM711.465 886.826L710.737 885.761L714.983 884.858L715.712 885.923L711.465 886.826ZM719.91 884.986L719.2 883.945L723.399 883.007L724.109 884.048L719.91 884.986ZM728.297 883.073L727.588 882.032L731.748 881.047L732.458 882.088L728.297 883.073ZM736.599 881.079L735.918 880.048L740.03 879.028L740.721 880.045L736.599 881.079ZM744.814 879.002L744.124 877.985L748.226 876.927L748.888 877.934L744.814 879.002ZM752.972 876.853L752.301 875.86L756.365 874.755L757.036 875.748L752.972 876.853ZM761.044 874.622L760.373 873.629L764.39 872.489L765.032 873.472L761.044 874.622ZM769.039 872.295L768.387 871.326L772.366 870.138L773.018 871.107L769.039 872.295ZM776.977 869.896L776.354 868.937L780.294 867.702L780.918 868.661L776.977 869.896ZM784.801 867.405L784.168 866.459L788.061 865.19L788.665 866.125L784.801 867.405ZM792.577 864.828L791.972 863.893L795.826 862.575L796.431 863.51L792.577 864.828ZM800.275 862.155L799.662 861.233L803.478 859.868L804.063 860.779L800.275 862.155ZM807.86 859.389L807.274 858.478L811.052 857.065L811.647 857.962L807.86 859.389ZM815.387 856.552L814.821 855.665L818.551 854.217L819.117 855.104L815.387 856.552ZM822.847 853.605L822.271 852.732L825.963 851.236L826.51 852.099L822.847 853.605ZM830.192 850.565L829.645 849.702L833.299 848.159L833.817 849.011L830.192 850.565ZM837.461 847.43L836.933 846.591L840.548 844.999L841.076 845.838L837.461 847.43ZM844.653 844.198L844.154 843.37L847.731 841.73L848.239 842.545L844.653 844.198ZM851.759 840.885L851.251 840.07L854.761 838.372L855.241 839.177L851.759 840.885ZM858.77 837.451L858.28 836.66L861.752 834.915L862.213 835.695L858.77 837.451ZM865.675 833.912L865.214 833.131L868.648 831.337L869.118 832.104L865.675 833.912ZM872.504 830.276L872.062 829.519L875.429 827.667L875.871 828.424L872.504 830.276ZM879.19 826.538L878.767 825.805L882.096 823.905L882.519 824.638L879.19 826.538ZM885.809 822.69L885.386 821.957L888.676 820.009L889.08 820.718L885.809 822.69ZM892.323 818.735L891.919 818.027L895.142 816.02L895.518 816.719L892.323 818.735ZM898.741 814.661L898.356 813.977L901.513 811.912L901.869 812.587L898.741 814.661ZM905.044 810.495L904.688 809.82L907.807 807.708L908.143 808.358L905.044 810.495ZM911.252 806.208L910.915 805.558L913.976 803.373L914.284 804.014L911.252 806.208ZM917.326 801.805L917.008 801.179L920.002 798.936L920.292 799.552L917.326 801.805ZM923.267 797.286L922.977 796.669L925.933 794.379L926.203 794.971L923.267 797.286ZM929.102 792.66L928.832 792.068L931.721 789.719L931.963 790.301L929.102 792.66ZM934.813 787.904L934.563 787.336L937.385 784.928L937.607 785.486L934.813 787.904ZM940.391 783.031L940.169 782.473L942.924 780.008L943.128 780.542L940.391 783.031ZM945.835 778.042L945.632 777.508L948.321 774.985L948.505 775.495L945.835 778.042ZM951.146 772.937L950.99 772.437L953.612 769.855L953.768 770.355L951.146 772.937ZM956.332 767.701L956.196 767.225L958.76 764.572L958.897 765.047L956.332 767.701ZM961.356 762.339L961.248 761.873L963.718 759.151L963.806 759.592L961.356 762.339ZM966.247 756.859L966.158 756.418L968.561 753.637L968.63 754.055L966.247 756.859ZM970.976 751.254L970.934 750.846L973.27 748.008L973.311 748.415L970.976 751.254ZM975.542 745.521L975.52 745.138L977.76 742.23L977.754 742.603L975.542 745.521ZM979.946 739.661L979.953 739.288L982.126 736.323L982.101 736.672L979.946 739.661ZM984.198 733.661L984.252 733.323L986.33 730.288L986.276 730.627L984.198 733.661ZM988.278 727.548L988.351 727.233L990.334 724.131L990.232 724.435L988.278 727.548ZM992.168 721.298L992.289 721.017L994.205 717.856L994.084 718.137L992.168 721.298ZM995.96 714.773L996.035 714.664L996.353 714.097L995.96 714.773ZM990.386 724.627C998.771 709.838 1009.93 690.119 1018.31 675.344C910.263 846.079 801.085 854.586 195.208 901.877L188.844 890.657L158.133 913.947L126.311 938.081C162.502 948.644 162.502 948.644 180.965 954.349C216.326 965.448 216.326 965.448 234.289 971.364L227.779 959.579C273.089 955.893 273.089 955.893 300.961 953.779L302.401 952.56L304.236 953.463L304.152 953.534L322.368 952.175L332.527 943.417L359.28 920.349L365.93 931.826C649.134 911.523 893.709 893.981 990.386 724.627Z" fill="#3D3D3D"/>
<path d="M1043.78 630.412C937.827 798.407 728.087 826.415 485.102 843.713L491.443 853.305C477.49 848.959 458.874 843.114 444.931 838.703C430.968 834.216 412.36 828.203 398.425 823.676L423.368 805.12L447.661 787.046L453.753 796.326C668.302 785.235 962.083 770.053 1075.56 574.304L1043.78 630.412Z" fill="#01BCC8"/>
<path d="M947.207 800.861C847.361 956.928 649.663 972.339 399.354 991.866L405.936 1004.33C373.53 992.027 372.903 991.8 355.78 985.489C322.875 973.504 322.247 973.277 304.908 967.178L310.722 962.169L312.452 960.68L322.339 952.165L332.498 943.407L359.251 920.339L365.901 931.816C660.372 910.693 892.942 894.011 990.366 724.603L947.207 800.861Z" fill="#FF6A70"/>
<path d="M385.314 921.646L380.495 921.984L381.235 923.24L386.063 922.889L385.314 921.646ZM394.962 920.957L390.143 921.295L390.883 922.551L395.702 922.214L394.962 920.957ZM404.572 920.271L399.781 920.619L400.53 921.862L405.321 921.514L404.572 920.271ZM414.144 919.589L409.353 919.937L410.102 921.18L414.893 920.832L414.144 919.589ZM423.688 918.896L418.935 919.241L419.684 920.483L424.437 920.139L423.688 918.896ZM433.165 918.196L428.412 918.541L429.161 919.784L433.914 919.439L433.165 918.196ZM442.651 917.483L437.927 917.838L438.676 919.081L443.401 918.726L442.651 917.483ZM452.1 916.773L447.376 917.128L448.125 918.371L452.849 918.016L452.1 916.773ZM461.492 916.042L456.796 916.407L457.554 917.637L462.25 917.271L461.492 916.042ZM470.855 915.301L466.159 915.666L466.918 916.896L471.613 916.53L470.855 915.301ZM480.218 914.56L475.551 914.936L476.309 916.165L480.977 915.789L480.218 914.56ZM489.534 913.785L484.866 914.161L485.625 915.39L490.292 915.014L489.534 913.785ZM498.821 912.999L494.173 913.399L494.94 914.615L499.589 914.215L498.821 912.999ZM508.108 912.214L503.46 912.613L504.227 913.829L508.876 913.429L508.108 912.214ZM517.347 911.394L512.727 911.804L513.495 913.019L518.115 912.61L517.347 911.394ZM526.567 910.55L521.976 910.97L522.744 912.186L527.345 911.752L526.567 910.55ZM535.768 909.682L531.168 910.116L531.945 911.318L536.546 910.884L535.768 909.682ZM544.941 908.804L540.369 909.248L541.146 910.45L545.718 910.006L544.941 908.804ZM554.132 907.899L549.551 908.357L550.328 909.559L554.91 909.101L554.132 907.899ZM563.267 906.973L558.714 907.441L559.491 908.643L564.053 908.161L563.267 906.973ZM572.391 906.009L567.829 906.491L568.616 907.679L573.178 907.197L572.391 906.009ZM581.506 905.008L576.963 905.514L577.749 906.702L582.293 906.196L581.506 905.008ZM590.592 903.996L586.04 904.516L586.798 905.694L591.35 905.174L590.592 903.996ZM599.678 902.933L595.154 903.463L595.95 904.638L600.483 904.094L599.678 902.933ZM608.745 901.846L604.211 902.39L605.007 903.564L609.541 903.021L608.745 901.846ZM617.802 900.722L613.287 901.289L614.055 902.453L618.569 901.886L617.802 900.722ZM626.849 899.559L622.325 900.141L623.13 901.301L627.654 900.72L626.849 899.559ZM635.857 898.349L631.353 898.954L632.13 900.105L636.644 899.486L635.857 898.349ZM644.885 897.112L640.371 897.73L641.157 898.867L645.681 898.235L644.885 897.112ZM653.912 895.823L649.408 896.479L650.194 897.616L654.698 896.96L653.912 895.823ZM662.844 894.466L658.388 895.156L659.174 896.293L663.63 895.602L662.844 894.466ZM671.747 893.046L667.31 893.761L668.077 894.874L672.485 894.149L671.747 893.046ZM680.526 891.549L676.136 892.298L676.903 893.411L681.302 892.648L680.526 891.549ZM689.267 890.003L684.915 890.8L685.663 891.889L690.015 891.092L689.267 890.003ZM697.902 888.351L693.599 889.182L694.347 890.271L698.65 889.44L697.902 888.351ZM706.471 886.64L702.187 887.496L702.916 888.561L707.181 887.681L706.471 886.64ZM714.983 884.858L710.737 885.761L711.465 886.826L715.712 885.923L714.983 884.858ZM723.408 882.994L719.21 883.931L719.919 884.972L724.127 884.021L723.408 882.994ZM731.748 881.047L727.588 882.032L728.297 883.073L732.458 882.088L731.748 881.047ZM740.03 879.028L735.918 880.048L736.599 881.079L740.721 880.045L740.03 879.028ZM748.226 876.927L744.124 877.985L744.814 879.002L748.888 877.934L748.226 876.927ZM756.337 874.744L752.272 875.85L752.943 876.843L756.979 875.727L756.337 874.744ZM764.399 872.476L760.382 873.615L761.053 874.608L765.07 873.469L764.399 872.476ZM772.366 870.138L768.387 871.326L769.039 872.295L773.018 871.107L772.366 870.138ZM780.256 867.705L776.316 868.941L776.94 869.899L780.88 868.664L780.256 867.705ZM788.098 865.186L784.206 866.456L784.839 867.401L788.741 866.118L788.098 865.186ZM795.826 862.575L791.972 863.893L792.576 864.828L796.431 863.51L795.826 862.575ZM803.478 859.868L799.662 861.233L800.275 862.155L804.091 860.789L803.478 859.868ZM811.071 857.089L807.294 858.502L807.879 859.413L811.657 858L811.071 857.089ZM818.56 854.203L814.83 855.651L815.396 856.538L819.136 855.077L818.56 854.203ZM825.972 851.222L822.28 852.718L822.856 853.591L826.557 852.082L825.972 851.222ZM833.299 848.158L829.645 849.702L830.192 850.565L833.846 849.021L833.299 848.158ZM840.548 844.999L836.933 846.591L837.461 847.43L841.048 845.828L840.548 844.999ZM847.702 841.72L844.125 843.359L844.625 844.188L848.173 842.538L847.702 841.72ZM854.77 838.358L851.26 840.056L851.769 840.871L855.279 839.173L854.77 838.358ZM861.762 834.901L858.29 836.647L858.779 837.438L862.251 835.692L861.762 834.901ZM868.648 831.337L865.214 833.131L865.675 833.912L869.081 832.108L868.648 831.337ZM875.429 827.667L872.062 829.519L872.504 830.276L875.871 828.424L875.429 827.667ZM882.105 823.891L878.777 825.791L879.2 826.524L882.528 824.624L882.105 823.891ZM888.676 820.009L885.386 821.957L885.809 822.69L889.08 820.718L888.676 820.009ZM895.18 816.017L891.957 818.023L892.361 818.732L895.593 816.712L895.18 816.017ZM901.541 811.922L898.385 813.987L898.769 814.672L901.935 812.593L901.541 811.922ZM907.806 807.708L904.688 809.82L905.044 810.495L908.143 808.358L907.806 807.708ZM913.967 803.387L910.906 805.571L911.243 806.222L914.303 804.037L913.967 803.387ZM920.002 798.936L917.008 801.179L917.326 801.805L920.32 799.562L920.002 798.936ZM925.924 794.392L922.968 796.683L923.257 797.299L926.185 794.998L925.924 794.392ZM931.721 789.719L928.832 792.068L929.102 792.66L931.963 790.301L931.721 789.719ZM937.385 784.928L934.563 787.336L934.813 787.904L937.607 785.486L937.385 784.928ZM942.915 780.022L940.159 782.487L940.382 783.045L943.118 780.556L942.915 780.022ZM948.349 774.995L945.66 777.519L945.864 778.053L948.533 775.505L948.349 774.995ZM953.621 769.842L951 772.423L951.155 772.923L953.758 770.317L953.621 769.842ZM958.732 764.561L956.167 767.215L956.304 767.691L958.84 765.027L958.732 764.561ZM963.737 759.175L961.267 761.897L961.376 762.362L963.845 759.64L963.737 759.175ZM968.551 753.651L966.149 756.432L966.238 756.873L968.612 754.082L968.551 753.651ZM973.241 747.997L970.906 750.836L970.947 751.243L973.254 748.394L973.241 747.997ZM977.76 742.23L975.52 745.138L975.542 745.521L977.754 742.603L977.76 742.23ZM982.126 736.323L979.953 739.288L979.946 739.661L982.091 736.685L982.126 736.323ZM986.321 730.302L984.243 733.336L984.189 733.675L986.238 730.63L986.321 730.302ZM990.334 724.131L988.351 727.233L988.278 727.548L990.261 724.445L990.334 724.131ZM994.176 717.846L992.26 721.007L992.139 721.287L994.027 718.116L994.176 717.846ZM995.96 714.773L996.362 714.083L996.045 714.65L995.96 714.773Z" fill="#FF6A70"/>
<path d="M375.629 922.339L374.17 922.442L373.613 921.49L371.672 921.624L372.941 923.822L376.34 923.585L375.629 922.339Z" fill="#FF6A70"/>
<path d="M369.626 914.694L367.685 914.827L369.664 918.221L371.605 918.087L369.626 914.694ZM365.677 907.945L363.736 908.079L365.725 911.458L367.666 911.324L365.677 907.945Z" fill="#FF6A70"/>
<path d="M362.007 901.724L359.646 903.769L361.434 904.637L361.622 904.467L361.747 904.699L363.688 904.566L362.007 901.724Z" fill="#FF6A70"/>
<path d="M291.055 962.219L290.904 962.335L289.136 963.827L288.186 964.643L290.05 965.556L292.364 963.579L292.9 963.108L291.245 962.305L291.055 962.219ZM296.718 957.378L293.887 959.798L295.751 960.711L298.583 958.291L296.718 957.378ZM302.363 952.563L300.923 953.782L299.541 954.971L301.376 955.873L304.105 953.551L304.189 953.48L302.363 952.563ZM307.989 947.777L305.185 950.156L307.021 951.059L309.834 948.665L307.989 947.777ZM313.558 943.02L310.764 945.386L312.609 946.275L315.403 943.909L313.558 943.02ZM319.099 938.305L316.343 940.668L318.188 941.557L320.944 939.194L319.099 938.305ZM324.631 933.604L321.884 935.953L323.729 936.842L326.476 934.493L324.631 933.604ZM330.096 928.946L327.359 931.282L329.175 932.16L331.913 929.825L330.096 928.946ZM335.553 924.303L332.834 926.611L334.651 927.49L337.369 925.182L335.553 924.303ZM340.953 919.69L338.243 921.985L340.06 922.863L342.769 920.569L340.953 919.69ZM346.334 915.105L343.662 917.396L345.479 918.274L348.15 915.983L346.334 915.105ZM351.658 910.55L348.996 912.827L350.813 913.706L353.475 911.429L351.658 910.55ZM356.993 906.033L354.34 908.297L356.128 909.165L358.781 906.901L356.993 906.033Z" fill="#FF6A70"/>
<path d="M285.335 967.092L283.228 968.87L287.018 970.19L287.777 969.083L286.456 968.622L287.171 967.994L285.335 967.092Z" fill="#FF6A70"/>
<path d="M298.19 972.729L293.002 970.904L292.272 972.022L297.46 973.846L298.19 972.729ZM308.555 976.392L303.377 974.554L302.648 975.671L307.826 977.51L308.555 976.392ZM318.902 980.083L313.734 978.231L312.995 979.362L318.163 981.214L318.902 980.083ZM329.193 983.804L324.033 981.938L323.294 983.069L328.454 984.935L329.193 983.804ZM339.474 987.539L334.352 985.67L333.613 986.801L338.735 988.67L339.474 987.539ZM349.698 991.304L344.586 989.422L343.875 990.563L348.988 992.446L349.698 991.304ZM359.913 995.084L354.811 993.187L354.1 994.329L359.203 996.225L359.913 995.084ZM370.11 998.89L365.016 996.98L364.306 998.121L369.399 1000.03L370.11 998.89ZM380.25 1002.73L375.165 1000.8L374.445 1001.96L379.53 1003.88L380.25 1002.73ZM390.38 1006.58L385.334 1004.65L384.614 1005.81L389.688 1007.74L390.38 1006.58ZM400.454 1010.46L395.417 1008.52L394.725 1009.68L399.762 1011.63L400.454 1010.46ZM410.547 1014.37L405.519 1012.41L404.818 1013.59L409.846 1015.54L410.547 1014.37ZM420.592 1018.29L415.574 1016.32L414.873 1017.5L419.892 1019.47L420.592 1018.29Z" fill="#FF6A70"/>
<path d="M427.787 1019.99L425.828 1020.15L425.972 1020.4L425.601 1020.27L424.9 1021.45L429.434 1023.24L427.787 1019.99Z" fill="#FF6A70"/>
<path d="M423.878 1012.35L421.919 1012.51L423.864 1016.32L425.823 1016.16L423.878 1012.35ZM419.951 1004.79L417.991 1004.95L419.964 1008.72L421.924 1008.55L419.951 1004.79Z" fill="#FF6A70"/>
<path d="M418.194 998.526L414.776 998.791L416.047 1001.19L418.006 1001.03L417.458 1000.02L418.925 999.899L418.194 998.526Z" fill="#FF6A70"/>
<path d="M427.936 997.751L423.051 998.134L423.782 999.506L428.667 999.124L427.936 997.751ZM437.678 996.977L432.821 997.369L433.553 998.742L438.409 998.35L437.678 996.977ZM447.363 996.182L442.535 996.584L443.266 997.957L448.094 997.555L447.363 996.182ZM457.01 995.39L452.182 995.793L452.922 997.152L457.75 996.749L457.01 995.39ZM466.628 994.588L461.829 995.001L462.569 996.36L467.369 995.947L466.628 994.588ZM476.199 993.751L471.399 994.164L472.14 995.524L476.94 995.111L476.199 993.751ZM485.76 992.929L480.989 993.352L481.73 994.711L486.501 994.288L485.76 992.929ZM495.303 992.082L490.532 992.505L491.272 993.864L496.043 993.441L495.303 992.082ZM504.817 991.225L500.074 991.659L500.815 993.018L505.557 992.584L504.817 991.225ZM514.283 990.334L509.54 990.767L510.281 992.126L515.023 991.693L514.283 990.334ZM523.749 989.442L519.025 989.9L519.766 991.259L524.49 990.801L523.749 989.442ZM533.167 988.517L528.444 988.974L529.185 990.334L533.908 989.876L533.167 988.517ZM542.567 987.567L537.862 988.049L538.612 989.394L543.317 988.913L542.567 987.567ZM551.976 986.604L547.271 987.085L548.021 988.431L552.726 987.949L551.976 986.604ZM561.337 985.606L556.651 986.112L557.401 987.457L562.087 986.952L561.337 985.606ZM570.679 984.585L566.022 985.101L566.772 986.446L571.429 985.93L570.679 984.585ZM580.011 983.526L575.345 984.055L576.095 985.401L580.761 984.871L580.011 983.526ZM589.324 982.443L584.677 982.996L585.436 984.328L590.083 983.774L589.324 982.443ZM598.598 981.312L593.971 981.889L594.701 983.211L599.329 982.633L598.598 981.312ZM607.778 980.112L603.198 980.724L603.929 982.045L608.509 981.433L607.778 980.112ZM616.89 978.854L612.358 979.5L613.06 980.811L617.593 980.165L616.89 978.854ZM625.879 977.517L621.394 978.198L622.106 979.495L626.591 978.815L625.879 977.517ZM634.839 976.119L630.374 976.823L631.057 978.11L635.494 977.396L634.839 976.119ZM643.675 974.642L639.257 975.38L639.94 976.667L644.359 975.929L643.675 974.642ZM652.445 973.106L648.074 973.879L648.738 975.142L653.118 974.356L652.445 973.106ZM661.128 971.488L656.796 972.309L657.46 973.572L661.792 972.752L661.128 971.488ZM669.745 969.812L665.46 970.667L666.096 971.92L670.38 971.065L669.745 969.812ZM678.275 968.054L674.038 968.943L674.683 970.183L678.929 969.28L678.275 968.054ZM686.72 966.213L682.493 967.141L683.109 968.37L687.308 967.432L686.72 966.213ZM695.079 964.291L690.899 965.252L691.516 966.481L695.666 965.509L695.079 964.291ZM703.351 962.286L699.21 963.295L699.808 964.5L703.92 963.48L703.351 962.286ZM711.567 960.209L707.473 961.252L708.042 962.447L712.145 961.39L711.567 960.209ZM719.696 958.05L715.641 959.141L716.219 960.322L720.274 959.231L719.696 958.05ZM727.711 955.798L723.704 956.924L724.253 958.095L728.27 956.955L727.711 955.798ZM735.669 953.474L731.7 954.648L732.249 955.819L736.218 954.645L735.669 953.474ZM743.55 951.055L739.619 952.277L740.149 953.423L744.052 952.191L743.55 951.055ZM751.316 948.543L747.424 949.813L747.926 950.949L751.79 949.669L751.316 948.543ZM759.006 945.935L755.161 947.239L755.673 948.362L759.498 947.034L759.006 945.935ZM766.61 943.245L762.832 944.607L763.315 945.719L767.093 944.357L766.61 943.245ZM774.138 940.459L770.398 941.869L770.862 942.957L774.602 941.547L774.138 940.459ZM781.56 937.566L777.859 939.024L778.322 940.113L782.024 938.655L781.56 937.566ZM788.897 934.592L785.233 936.098L785.678 937.162L789.313 935.646L788.897 934.592ZM796.137 931.497L792.512 933.051L792.928 934.106L796.525 932.541L796.137 931.497ZM803.292 928.321L799.734 929.933L800.131 930.963L803.689 929.351L803.292 928.321ZM810.342 925.038L806.822 926.698L807.2 927.704L810.691 926.034L810.342 925.038ZM817.267 921.625L813.814 923.343L814.192 924.349L817.645 922.631L817.267 921.625ZM824.107 918.129L820.692 919.896L821.051 920.878L824.437 919.101L824.107 918.129ZM830.841 914.528L827.493 916.352L827.823 917.325L831.171 915.5L830.841 914.528ZM837.48 910.806L834.17 912.679L834.481 913.627L837.762 911.744L837.48 910.806ZM843.985 906.968L840.742 908.899L841.025 909.837L844.268 907.906L843.985 906.968ZM850.395 903.011L847.218 905L847.482 905.914L850.667 903.911L850.395 903.011ZM856.661 898.95L853.552 900.997L853.796 901.887L856.915 899.826L856.661 898.95ZM862.841 894.756L859.761 896.865L859.976 897.744L863.028 895.625L862.841 894.756ZM868.878 890.459L865.865 892.626L866.061 893.482L869.046 891.304L868.878 890.459ZM874.791 886.031L871.844 888.257L872.022 889.089L874.94 886.853L874.791 886.031ZM880.58 881.474L877.7 883.758L877.849 884.579L880.71 882.271L880.58 881.474ZM886.207 876.79L883.384 879.146L883.514 879.943L886.308 877.577L886.207 876.79ZM891.728 871.999L889.001 874.424L889.111 875.197L891.839 872.773L891.728 871.999ZM897.078 867.044L894.417 869.527L894.471 870.28L897.112 867.773L897.078 867.044ZM902.285 861.986L899.691 864.527L899.725 865.256L902.3 862.691L902.285 861.986ZM907.367 856.798L904.859 859.422L904.874 860.126L907.382 857.503L907.367 856.798ZM912.268 851.46L909.827 854.141L909.814 854.835L912.227 852.144L912.268 851.46ZM917.017 845.98L914.671 848.73L914.61 849.39L916.965 846.627L917.017 845.98ZM921.603 840.374L919.315 843.196L919.235 843.832L921.495 841L921.603 840.374ZM926.028 834.641L923.835 837.532L923.707 838.134L925.871 835.233L926.028 834.641ZM930.271 828.758L928.173 831.717L928.017 832.308L930.086 829.339L930.271 828.758ZM934.323 822.737L932.321 825.764L932.117 826.322L934.1 823.27L934.323 822.737ZM938.194 816.565L936.287 819.661L936.064 820.194L937.952 817.074L938.194 816.565ZM940.465 812.73L941.464 810.96L940.054 813.435L939.783 813.934L940.465 812.73Z" fill="#FF6A70"/>
<path d="M471.048 787.898L466.635 788.11L467.355 789.189L471.777 788.963L471.048 787.898ZM479.855 787.45L475.433 787.676L476.152 788.755L480.574 788.529L479.855 787.45ZM488.671 786.989L484.277 787.225L484.996 788.304L489.39 788.068L488.671 786.989ZM497.43 786.507L493.036 786.743L493.765 787.808L498.159 787.572L497.43 786.507ZM506.198 786.012L501.833 786.258L502.562 787.323L506.936 787.063L506.198 786.012ZM514.938 785.506L510.564 785.765L511.302 786.817L515.676 786.557L514.938 785.506ZM523.659 784.976L519.313 785.246L520.051 786.297L524.397 786.027L523.659 784.976ZM532.332 784.412L527.976 784.695L528.715 785.747L533.07 785.463L532.332 784.412ZM541.005 783.847L536.678 784.141L537.426 785.179L541.752 784.885L541.005 783.847ZM549.668 783.246L545.341 783.54L546.089 784.577L550.425 784.27L549.668 783.246ZM558.341 782.63L554.033 782.948L554.79 783.972L559.098 783.654L558.341 782.63ZM566.966 781.98L562.649 782.312L563.406 783.336L567.723 783.004L566.966 781.98ZM575.572 781.307L571.255 781.638L572.011 782.662L576.338 782.317L575.572 781.307ZM584.196 780.605L579.898 780.961L580.665 781.971L584.963 781.616L584.196 780.605ZM592.773 779.87L588.466 780.239L589.232 781.25L593.54 780.88L592.773 779.87ZM601.369 779.107L597.081 779.501L597.856 780.497L602.145 780.104L601.369 779.107ZM609.946 778.321L605.657 778.714L606.433 779.711L610.73 779.304L609.946 778.321ZM618.512 777.496L614.243 777.914L615.028 778.897L619.297 778.479L618.512 777.496ZM627.069 776.634L622.791 777.065L623.576 778.048L627.854 777.617L627.069 776.634ZM635.588 775.724L631.328 776.179L632.123 777.149L636.382 776.694L635.588 775.724ZM644.144 774.811L639.876 775.28L640.67 776.249L644.939 775.78L644.144 774.811ZM652.672 773.836L648.422 774.329L649.226 775.284L653.476 774.792L652.672 773.836ZM661.19 772.824L656.931 773.33L657.734 774.286L662.003 773.766L661.19 772.824ZM669.707 771.76L665.439 772.28L666.252 773.222L670.53 772.688L669.707 771.76ZM678.243 770.669L673.985 771.226L674.798 772.168L679.056 771.611L678.243 770.669ZM686.741 769.529L682.473 770.101L683.296 771.029L687.563 770.458L686.741 769.529ZM695.238 768.339L690.99 768.934L691.812 769.863L696.07 769.254L695.238 768.339ZM703.764 767.107L699.497 767.73L700.328 768.645L704.596 768.022L703.764 767.107ZM712.251 765.828L708.003 766.475L708.844 767.376L713.102 766.715L712.251 765.828ZM720.747 764.484L716.48 765.157L717.321 766.058L721.588 765.385L720.747 764.484ZM729.272 763.098L725.024 763.796L725.874 764.683L730.131 763.972L729.272 763.098ZM737.767 761.651L733.5 762.376L734.36 763.25L738.598 762.515L737.767 761.651ZM746.262 760.153L742.005 760.916L742.865 761.789L747.122 761.026L746.262 760.153ZM754.766 758.589L750.528 759.376L751.397 760.236L755.635 759.449L754.766 758.589ZM763.174 756.958L758.975 757.792L759.815 758.642L764.015 757.807L763.174 756.958ZM771.563 755.25L767.383 756.109L768.233 756.945L772.394 756.062L771.563 755.25ZM779.866 753.461L775.724 754.368L776.555 755.18L780.697 754.273L779.866 753.461ZM788.083 751.589L783.989 752.53L784.82 753.342L788.923 752.388L788.083 751.589ZM796.271 749.656L792.187 750.635L792.998 751.423L797.054 750.434L796.271 749.656ZM804.354 747.617L800.308 748.643L801.129 749.418L805.175 748.391L804.354 747.617ZM812.399 745.529L808.4 746.59L809.193 747.354L813.201 746.28L812.399 745.529ZM820.377 743.332L816.388 744.431L817.19 745.181L821.15 744.072L820.377 743.332ZM828.287 741.077L824.337 742.223L825.11 742.963L829.061 741.817L828.287 741.077ZM836.122 738.726L832.219 739.906L833.002 740.633L836.914 739.438L836.122 738.726ZM843.898 736.303L840.034 737.531L840.797 738.234L844.662 737.005L843.898 736.303ZM851.627 733.794L847.772 735.06L848.507 735.752L852.334 734.476L851.627 733.794ZM859.27 731.203L855.453 732.517L856.198 733.196L860.014 731.881L859.27 731.203ZM866.836 728.516L863.067 729.865L863.792 730.519L867.571 729.157L866.836 728.516ZM874.354 725.744L870.623 727.14L871.349 727.795L875.089 726.385L874.354 725.744ZM881.786 722.889L878.065 724.323L878.772 724.954L882.464 723.509L881.786 722.889ZM889.142 719.938L885.459 721.421L886.175 722.037L889.829 720.545L889.142 719.938ZM896.44 716.916L892.796 718.446L893.483 719.053L897.127 717.522L896.44 716.916ZM903.642 713.773L900.036 715.352L900.704 715.934L904.31 714.356L903.642 713.773ZM910.787 710.559L907.22 712.185L907.897 712.754L911.465 711.128L910.787 710.559ZM917.884 707.259L914.364 708.92L915.013 709.478L918.542 707.804L917.884 707.259ZM924.867 703.867L921.385 705.575L922.015 706.11L925.506 704.388L924.867 703.867ZM931.782 700.365L928.339 702.121L928.978 702.642L932.43 700.872L931.782 700.365ZM938.611 696.78L935.206 698.585L935.826 699.082L939.241 697.264L938.611 696.78ZM945.336 693.09L941.969 694.942L942.56 695.429L945.936 693.563L945.336 693.09ZM952.021 689.3L948.693 691.2L949.265 691.663L952.565 689.753L952.021 689.3ZM958.592 685.418L955.302 687.366L955.884 687.815L959.145 685.857L958.592 685.418ZM965.087 681.44L961.863 683.446L962.416 683.885L965.64 681.879L965.087 681.44ZM971.476 677.355L968.291 679.41L968.825 679.824L972.01 677.77L971.476 677.355ZM977.789 673.175L974.642 675.277L975.157 675.668L978.275 673.556L977.789 673.175ZM983.987 668.902L980.907 671.063L981.403 671.429L984.483 669.269L983.987 668.902ZM990.119 664.52L987.077 666.728L987.573 667.095L990.614 664.887L990.119 664.52ZM996.116 660.021L993.113 662.277L993.589 662.62L996.564 660.353L996.116 660.021ZM1002.03 655.44L999.091 657.754L999.549 658.073L1002.49 655.758L1002.03 655.44ZM1007.81 650.742L1004.91 653.104L1005.35 653.399L1008.22 651.026L1007.81 650.742ZM1013.48 645.938L1010.65 648.359L1011.06 648.643L1013.89 646.223L1013.48 645.938ZM1019.08 641.038L1016.32 643.504L1016.71 643.764L1019.48 641.285L1019.08 641.038ZM1024.51 636.012L1021.79 638.525L1022.16 638.761L1024.86 636.224L1024.51 636.012ZM1029.87 630.889L1027.22 633.461L1027.57 633.673L1030.2 631.078L1029.87 630.889ZM1035.05 625.653L1032.47 628.283L1032.79 628.485L1035.38 625.856L1035.05 625.653ZM1040.16 620.322L1037.65 623.01L1037.95 623.188L1040.47 620.5L1040.16 620.322ZM1045.1 614.877L1042.65 617.623L1042.94 617.778L1045.39 615.031L1045.1 614.877ZM1049.91 609.316L1047.53 612.106L1047.8 612.237L1050.18 609.432L1049.91 609.316ZM1054.6 603.662L1052.29 606.511L1052.5 606.621L1054.81 603.771L1054.6 603.662ZM1059.12 597.881L1056.88 600.789L1057.07 600.874L1059.32 597.967L1059.12 597.881ZM1063.51 591.997L1061.35 594.95L1061.52 595.011L1063.69 592.046L1063.51 591.997ZM1067.72 586.001L1065.63 589.011L1065.77 589.063L1067.84 586.042L1067.72 586.001ZM1071.79 579.901L1069.76 582.97L1069.86 582.987L1071.86 579.908L1071.79 579.901ZM1075.73 573.685L1073.81 576.809L1073.87 576.816L1075.8 573.692L1075.73 573.685ZM1079.49 567.37L1077.64 570.538L1077.69 570.521L1079.52 567.329L1079.49 567.37Z" fill="#01BCC8"/>
<path d="M462.184 788.325L460.859 788.392L460.321 787.566L458.551 787.659L459.807 789.563L462.932 789.414L462.184 788.325Z" fill="#01BCC8"/>
<path d="M456.782 782.193L455.02 782.272L456.804 784.964L458.566 784.885L456.782 782.193ZM453.232 776.834L451.471 776.913L453.227 779.595L454.988 779.515L453.232 776.834Z" fill="#01BCC8"/>
<path d="M449.884 771.701L447.68 773.309L449.317 774.139L449.543 773.965L449.725 774.218L451.477 774.153L449.884 771.701Z" fill="#01BCC8"/>
<path d="M385.051 819.419L382.462 821.331L384.155 822.182L386.745 820.27L385.051 819.419ZM390.221 815.61L387.641 817.508L389.334 818.359L391.914 816.461L390.221 815.61ZM395.372 811.828L392.801 813.712L394.494 814.563L397.065 812.679L395.372 811.828ZM400.485 808.049L397.923 809.92L399.588 810.761L402.15 808.89L400.485 808.049ZM405.57 804.312L403.046 806.179L404.711 807.02L407.244 805.139L405.57 804.312ZM410.636 800.602L408.122 802.455L409.787 803.296L412.31 801.429L410.636 800.602ZM415.664 796.895L413.15 798.748L414.815 799.589L417.329 797.735L415.664 796.895ZM420.646 793.205L418.141 795.045L419.806 795.885L422.31 794.046L420.646 793.205ZM425.636 789.553L423.141 791.379L424.806 792.22L427.301 790.393L425.636 789.553ZM430.589 785.904L428.132 787.727L429.768 788.557L432.226 786.734L430.589 785.904ZM435.486 782.286L433.038 784.095L434.674 784.925L437.122 783.116L435.486 782.286ZM440.402 778.691L437.963 780.487L439.608 781.304L442.047 779.508L440.402 778.691ZM445.251 775.09L442.821 776.872L444.467 777.689L446.906 775.893L445.251 775.09Z" fill="#01BCC8"/>
<path d="M379.844 823.232L377.867 824.717L381.495 825.91L382.056 824.936L380.925 824.561L381.528 824.097L379.844 823.232Z" fill="#01BCC8"/>
<path d="M391.555 828.047L386.815 826.503L386.254 827.477L391.023 829.031L391.555 828.047ZM401.054 831.158L396.314 829.614L395.753 830.588L400.493 832.132L401.054 831.158ZM410.543 834.231L405.803 832.688L405.243 833.662L409.983 835.205L410.543 834.231ZM420.032 837.305L415.283 835.775L414.723 836.749L419.472 838.279L420.032 837.305ZM429.531 840.364L424.782 838.834L424.25 839.819L428.999 841.349L429.531 840.364ZM439.011 843.4L434.252 841.884L433.72 842.868L438.479 844.384L439.011 843.4ZM448.499 846.422L443.741 844.906L443.209 845.89L447.968 847.407L448.499 846.422ZM457.998 849.431L453.258 847.938L452.726 848.923L457.466 850.415L457.998 849.431ZM467.477 852.415L462.737 850.923L462.205 851.907L466.945 853.399L467.477 852.415ZM476.994 855.396L472.245 853.918L471.713 854.902L476.462 856.381L476.994 855.396ZM486.463 858.343L481.714 856.864L481.211 857.859L485.96 859.338L486.463 858.343ZM495.97 861.286L491.212 859.822L490.709 860.816L495.467 862.281L495.97 861.286ZM505.468 864.192L500.709 862.727L500.206 863.722L504.964 865.187L505.468 864.192Z" fill="#01BCC8"/>
<path d="M512.279 865.359L510.471 865.507L510.672 865.784L510.197 865.647L509.694 866.642L514.015 867.965L512.279 865.359Z" fill="#01BCC8"/>
<path d="M508.538 859.709L506.73 859.857L508.6 862.682L510.409 862.534L508.538 859.709ZM504.807 854.096L503.008 854.23L504.888 857.042L506.696 856.894L504.807 854.096Z" fill="#01BCC8"/>
<path d="M502.986 849.226L499.804 849.457L501.119 851.433L502.946 851.309L502.361 850.449L503.743 850.352L502.986 849.226Z" fill="#01BCC8"/>
<path d="M511.989 848.542L507.483 848.891L508.241 850.017L512.747 849.669L511.989 848.542ZM521.002 847.845L516.496 848.194L517.254 849.32L521.76 848.972L521.002 847.845ZM529.968 847.114L525.48 847.486L526.248 848.599L530.735 848.227L529.968 847.114ZM538.943 846.369L534.455 846.741L535.222 847.854L539.71 847.482L538.943 846.369ZM547.898 845.6L543.43 845.996L544.197 847.109L548.665 846.713L547.898 845.6ZM556.797 844.81L552.329 845.207L553.105 846.306L557.573 845.91L556.797 844.81ZM565.714 843.993L561.265 844.414L562.041 845.513L566.491 845.093L565.714 843.993ZM574.622 843.139L570.173 843.559L570.949 844.659L575.398 844.238L574.622 843.139ZM583.501 842.274L579.071 842.718L579.856 843.804L584.286 843.36L583.501 842.274ZM592.37 841.371L587.931 841.83L588.716 842.915L593.156 842.457L592.37 841.371ZM601.201 840.421L596.781 840.903L597.576 841.975L601.996 841.493L601.201 840.421ZM610.041 839.457L605.621 839.939L606.416 841.011L610.846 840.515L610.041 839.457ZM618.872 838.455L614.471 838.961L615.275 840.019L619.676 839.513L618.872 838.455ZM627.692 837.416L623.282 837.935L624.087 838.994L628.497 838.474L627.692 837.416ZM636.503 836.338L632.112 836.882L632.917 837.94L637.308 837.397L636.503 836.338ZM645.305 835.224L640.904 835.781L641.718 836.826L646.128 836.255L645.305 835.224ZM654.105 834.058L649.724 834.639L650.538 835.684L654.929 835.089L654.105 834.058ZM662.887 832.868L658.487 833.476L659.31 834.507L663.71 833.899L662.887 832.868ZM671.677 831.613L667.296 832.245L668.12 833.276L672.501 832.644L671.677 831.613ZM680.42 830.323L676.03 830.97L676.863 831.987L681.253 831.341L680.42 830.323ZM689.201 828.979L684.82 829.663L685.653 830.681L690.033 829.997L689.201 828.979ZM697.971 827.598L693.581 828.296L694.423 829.299L698.813 828.602L697.971 827.598ZM706.722 826.141L702.342 826.876L703.156 827.87L707.507 827.124L706.722 826.141ZM715.407 824.626L711.074 825.395L711.897 826.375L716.229 825.606L715.407 824.626ZM724.005 823.028L719.72 823.832L720.524 824.788L724.818 823.971L724.005 823.028ZM732.546 821.359L728.271 822.201L729.074 823.156L733.321 822.305L732.546 821.359ZM741.02 819.632L736.792 820.507L737.567 821.453L741.795 820.577L741.02 819.632ZM749.417 817.808L745.228 818.732L746.012 819.664L750.202 818.74L749.417 817.808ZM757.729 815.902L753.587 816.86L754.352 817.768L758.503 816.797L757.729 815.902ZM766.002 813.949L761.87 814.944L762.635 815.852L766.739 814.846L766.002 813.949ZM774.17 811.889L770.086 812.919L770.832 813.803L774.926 812.759L774.17 811.889ZM782.309 809.767L778.263 810.845L779.01 811.729L783.055 810.651L782.309 809.767ZM790.343 807.54L786.336 808.666L787.063 809.525L791.07 808.399L790.343 807.54ZM798.32 805.24L794.332 806.39L795.059 807.25L799.028 806.076L798.32 805.24ZM806.239 802.868L802.289 804.066L802.997 804.902L806.919 803.694L806.239 802.868ZM814.073 800.415L810.161 801.66L810.878 802.483L814.79 801.237L814.073 800.415ZM821.829 797.865L817.965 799.145L818.654 799.957L822.528 798.663L821.829 797.865ZM829.538 795.23L825.712 796.558L826.382 797.346L830.217 796.004L829.538 795.23ZM837.132 792.502L833.345 793.878L834.015 794.666L837.802 793.29L837.132 792.502ZM844.679 789.688L840.901 791.102L841.551 791.866L845.301 790.442L844.679 789.688ZM852.167 786.803L848.428 788.265L849.088 789.015L852.799 787.543L852.167 786.803ZM859.551 783.811L855.85 785.321L856.481 786.061L860.154 784.541L859.551 783.811ZM866.858 780.724L863.205 782.268L863.817 782.984L867.451 781.416L866.858 780.724ZM874.089 777.541L870.473 779.132L871.095 779.835L874.691 778.219L874.089 777.541ZM881.233 774.275L877.656 775.915L878.249 776.607L881.807 774.943L881.233 774.275ZM888.311 770.9L884.8 772.598L885.374 773.266L888.894 771.554L888.311 770.9ZM895.302 767.442L891.83 769.188L892.385 769.832L895.857 768.086L895.302 767.442ZM902.188 763.879L898.755 765.672L899.31 766.316L902.743 764.523L902.188 763.879ZM908.998 760.219L905.603 762.061L906.138 762.681L909.534 760.839L908.998 760.219ZM915.703 756.453L912.346 758.343L912.862 758.939L916.191 757.039L915.703 756.453ZM922.331 752.592L919.041 754.54L919.529 755.125L922.819 753.177L922.331 752.592ZM928.863 748.61L925.611 750.606L926.109 751.178L929.361 749.182L928.863 748.61ZM935.31 744.546L932.096 746.59L932.574 747.138L935.759 745.084L935.31 744.546ZM941.623 740.366L938.476 742.468L938.935 742.992L942.091 740.876L941.623 740.366ZM947.859 736.09L944.75 738.24L945.181 738.754L948.27 736.58L947.859 736.09ZM953.971 731.683L950.929 733.892L951.341 734.382L954.392 732.159L953.971 731.683ZM959.997 727.195L956.994 729.451L957.386 729.917L960.37 727.637L959.997 727.195ZM965.899 722.576L962.962 724.89L963.326 725.346L966.244 723.007L965.899 722.576ZM971.686 717.864L968.816 720.237L969.161 720.669L972.04 718.282L971.686 717.864ZM977.35 713.023L974.547 715.454L974.872 715.862L977.684 713.417L977.35 713.023ZM982.898 708.089L980.134 710.568L980.44 710.951L983.186 708.448L982.898 708.089ZM988.323 703.025L985.625 705.562L985.903 705.935L988.582 703.374L988.323 703.025ZM993.614 697.844L990.983 700.439L991.241 700.789L993.853 698.169L993.614 697.844ZM998.762 692.56L996.197 695.214L996.437 695.539L998.982 692.861L998.762 692.56ZM1003.78 687.16L1001.28 689.872L1001.5 690.173L1003.98 687.437L1003.78 687.16ZM1008.67 681.629L1006.24 684.4L1006.4 684.681L1008.8 681.9L1008.67 681.629ZM1013.41 675.996L1011.08 678.835L1011.22 679.092L1013.56 676.253L1013.41 675.996ZM1017.99 670.25L1015.72 673.147L1015.85 673.38L1018.11 670.483L1017.99 670.25ZM1022.41 664.363L1020.21 667.318L1020.31 667.541L1022.48 664.575L1022.41 664.363ZM1026.69 658.373L1024.57 661.373L1024.62 661.561L1026.72 658.537L1026.69 658.373ZM1030.8 652.27L1028.77 655.339L1028.8 655.503L1030.81 652.411L1030.8 652.27ZM1034.72 646.03L1032.76 649.157L1032.77 649.297L1034.7 646.16L1034.72 646.03ZM1038.5 639.674L1036.64 642.855L1036.6 642.975L1038.44 639.769L1038.5 639.674Z" fill="#01BCC8"/>
<path d="M728.075 186.778L726.828 186.157C777.96 179.579 783.306 178.886 821.569 176.505L830.645 182.26C995.148 295.858 1114.35 498.343 1023.9 665.515L1023.09 666.961C1121.2 471.522 960.311 270.077 828.258 182.369L820.545 177.482C769.258 181.327 763.9 181.725 728.075 186.778Z" fill="#3D3D3D"/>
<path d="M995.886 714.934L995.979 714.798L996.381 714.107L997.875 711.459L997.707 711.705L995.886 714.934ZM999.394 708.41L999.591 708.174L1001.31 704.889L1001.11 705.125L999.394 708.41ZM1002.73 701.772L1002.95 701.56L1004.57 698.207L1004.32 698.408L1002.73 701.772ZM1005.87 695.011L1006.14 694.82L1007.67 691.398L1007.37 691.565L1005.87 695.011ZM1008.81 688.112L1009.14 687.955L1010.56 684.479L1010.24 684.636L1008.81 688.112ZM1011.53 681.08L1011.87 680.947L1013.17 677.392L1012.8 677.514L1011.53 681.08ZM1014.05 673.924L1014.45 673.812L1015.64 670.202L1015.21 670.304L1014.05 673.924ZM1016.37 666.645L1016.81 666.567L1017.91 662.888L1017.44 662.956L1016.37 666.645ZM1018.43 659.222L1018.93 659.165L1019.89 655.421L1019.37 655.454L1018.43 659.222ZM1020.29 651.676L1020.84 651.652L1021.7 647.853L1021.12 647.866L1020.29 651.676ZM1021.89 643.998L1022.48 644.01L1023.21 640.145L1022.61 640.134L1021.89 643.998ZM1023.27 636.212L1023.9 636.233L1024.53 632.3L1023.87 632.268L1023.27 636.212ZM1024.39 628.294L1025.06 628.35L1025.56 624.352L1024.86 624.286L1024.39 628.294ZM1025.24 620.247L1026 620.333L1026.36 616.284L1025.6 616.197L1025.24 620.247ZM1025.86 612.079L1026.67 612.186L1026.89 608.071L1026.06 607.94L1025.86 612.079ZM1026.22 603.804L1027.09 603.946L1027.21 599.776L1026.31 599.625L1026.22 603.804ZM1026.29 595.403L1027.21 595.565L1027.18 591.344L1026.23 591.172L1026.29 595.403ZM1026.1 586.895L1027.07 587.092L1026.91 582.805L1025.92 582.599L1026.1 586.895ZM1025.65 578.271L1026.67 578.488L1026.37 574.15L1025.32 573.923L1025.65 578.271ZM1024.87 569.533L1025.95 569.771L1025.51 565.381L1024.4 565.133L1024.87 569.533ZM1023.86 560.726L1025 560.985L1024.43 556.568L1023.27 556.299L1023.86 560.726ZM1022.57 551.868L1023.76 552.147L1023.06 547.716L1021.83 547.44L1022.57 551.868ZM1021.05 542.965L1022.32 543.251L1021.49 538.792L1020.2 538.496L1021.05 542.965ZM1019.28 534.034L1020.59 534.34L1019.64 529.868L1018.32 529.561L1019.28 534.034ZM1017.26 525.085L1018.62 525.388L1017.56 520.912L1016.17 520.599L1017.26 525.085ZM1015.02 516.105L1016.43 516.429L1015.24 511.939L1013.79 511.619L1015.02 516.105ZM1012.5 507.111L1013.98 507.442L1012.68 502.949L1011.2 502.618L1012.5 507.111ZM1009.77 498.11L1011.28 498.451L1009.84 493.958L1008.29 493.62L1009.77 498.11ZM1006.82 489.13L1008.39 489.478L1006.85 484.98L1005.25 484.622L1006.82 489.13ZM1003.62 480.145L1005.23 480.49L1003.57 476.002L1001.93 475.647L1003.62 480.145ZM1000.2 471.167L1001.88 471.518L1000.11 467.041L998.401 466.679L1000.2 471.167ZM996.583 462.219L998.291 462.581L996.407 458.114L994.661 457.755L996.583 462.219ZM992.739 453.291L994.514 453.66L992.545 449.214L990.761 448.858L992.739 453.291ZM988.687 444.408L990.5 444.774L988.417 440.337L986.576 439.961L988.687 444.408ZM984.437 435.555L986.287 435.917L984.11 431.515L982.231 431.142L984.437 435.555ZM979.997 426.77L981.914 427.139L979.651 422.757L977.735 422.388L979.997 426.77ZM975.378 418.04L977.333 418.406L974.976 414.057L973.021 413.692L975.378 418.04ZM970.551 409.354L972.543 409.716L970.092 405.402L968.1 405.04L970.551 409.354ZM965.563 400.746L967.594 401.105L965.048 396.825L963.008 396.479L965.563 400.746ZM960.415 392.216L962.483 392.572L959.872 388.336L957.766 387.984L960.415 392.216ZM955.098 383.779L957.204 384.131L954.498 379.93L952.382 379.591L955.098 383.779ZM949.619 375.42L951.763 375.769L948.982 371.626L946.829 371.29L949.619 375.42ZM943.981 367.14L946.172 367.472L943.325 363.372L941.134 363.04L943.981 367.14ZM938.22 358.986L940.421 359.304L937.498 355.263L935.26 354.948L938.22 358.986ZM932.356 350.93L934.595 351.245L931.606 347.249L929.358 346.947L932.356 350.93ZM926.313 342.981L928.599 343.279L925.563 339.351L923.278 339.053L926.313 342.981ZM920.176 335.169L922.471 335.453L919.361 331.582L917.056 331.312L920.176 335.169ZM913.965 327.465L916.298 327.746L913.149 323.93L910.807 323.663L913.965 327.465ZM907.593 319.892L909.945 320.145L906.75 316.398L904.398 316.144L907.593 319.892ZM901.166 312.451L903.555 312.702L900.313 309.022L897.915 308.786L901.166 312.451ZM894.664 305.172L897.063 305.408L893.774 301.798L891.366 301.575L894.664 305.172ZM888.078 298.015L890.495 298.224L887.188 294.692L884.762 294.497L888.078 298.015ZM881.389 291.009L883.816 291.204L880.462 287.741L878.026 287.559L881.389 291.009ZM874.692 284.17L877.137 284.339L873.765 280.953L871.31 280.799L874.692 284.17ZM867.901 277.469L870.356 277.623L866.956 274.33L864.492 274.189L867.901 277.469ZM861.102 270.934L863.576 271.061L860.158 267.847L857.684 267.72L861.102 270.934ZM854.257 264.571L856.74 264.684L853.304 261.549L850.812 261.449L854.257 264.571ZM847.376 258.365L849.877 258.451L846.451 255.404L843.94 255.332L847.376 258.365ZM840.477 252.34L842.988 252.412L839.544 249.444L837.023 249.386L840.477 252.34ZM833.57 246.483L836.071 246.518L832.599 243.642L830.098 243.607L833.57 246.483ZM826.655 240.793L829.165 240.814L825.704 238.028L823.184 238.02L826.655 240.793ZM819.751 235.295L822.28 235.289L818.828 232.591L816.328 232.608L819.751 235.295ZM812.839 229.965L815.349 229.935L811.907 227.326L809.388 227.37L812.839 229.965ZM805.975 224.823L808.504 224.765L805.073 222.245L802.573 222.313L805.975 224.823ZM799.095 219.862L801.604 219.78L798.184 217.349L795.664 217.445L799.095 219.862ZM792.272 215.075L794.763 214.97L791.352 212.628L788.852 212.747L792.272 215.075ZM785.489 210.491L787.999 210.358L784.627 208.115L782.137 208.272L785.489 210.491ZM778.756 206.095L781.246 205.938L777.884 203.784L775.384 203.955L778.756 206.095ZM772.071 201.887L774.551 201.692L771.228 199.638L768.747 199.832L772.071 201.887ZM765.434 197.867L767.896 197.648L764.611 195.693L762.141 195.925L765.434 197.867ZM758.857 194.022L761.308 193.766L758.034 191.899L755.582 192.155L758.857 194.022ZM990.386 724.627C1099.44 506.201 878.052 268.929 735.295 190.464L749.302 188.707L752.385 190.385L754.846 190.115L751.772 188.424C770.391 186.631 795.307 184.317 814.347 183.051C983.647 295.774 1108.08 501.056 1018.34 675.341C1009.93 690.119 998.771 709.839 990.386 724.627Z" fill="#3D3D3D"/>
<path d="M1043.78 630.412L1075.55 574.318C1174.63 378.497 1024.09 196.329 898.687 121.65C886.086 119.225 873.413 117.217 860.772 115.682C848.207 114.139 835.684 113.055 823.212 112.416C810.872 111.791 798.659 111.604 786.592 111.878C774.667 112.153 762.907 112.863 751.359 114.042C945.023 163.253 1157.43 419.55 1043.78 630.412Z" fill="#01BCC8"/>
<path d="M947.207 800.861L990.386 724.627C1099.44 506.201 878.053 268.929 735.295 190.464L728.065 186.792L726.819 186.171C693.719 171.199 684.624 167.757 654.516 161.815C613.774 177.163 605.321 180.366 567.301 199.581C710.148 199.088 1078.45 542.403 947.207 800.861Z" fill="#FF6A70"/>
<path d="M555.918 204.621L556.353 204.557L555.165 205.253L555.458 205.189L553.884 206.137L553.146 206.279L555.918 204.621Z" fill="#FF6A70"/>
<path d="M563.791 200.084L564.264 200.017L560.294 202.282L559.849 202.36L563.791 200.084ZM571.844 195.596L572.346 195.538L568.262 197.762L567.76 197.819L571.844 195.596ZM580.126 191.189L580.684 191.152L576.486 193.335L575.956 193.382L580.126 191.189ZM588.569 186.858L589.184 186.842L584.901 188.994L584.314 189.02L588.569 186.858ZM597.268 182.62L597.913 182.615L593.525 184.711L592.909 184.727L597.268 182.62ZM606.13 178.458L606.831 178.473L602.329 180.528L601.656 180.524L606.13 178.458ZM615.248 174.388L616.006 174.423L611.428 176.434L610.698 176.409L615.248 174.388ZM624.518 170.407L625.305 170.453L620.613 172.423L619.854 172.387L624.518 170.407ZM634.026 166.547L634.87 166.613L630.073 168.528L629.258 168.472L634.026 166.547ZM643.724 162.772L644.625 162.859L639.724 164.719L638.851 164.643L643.724 162.772ZM653.556 159.114L654.476 159.225L649.508 161.027L648.616 160.926L653.556 159.114Z" fill="#FF6A70"/>
<path d="M662.114 156.07L663.764 156.308L661.714 157.017L661.003 156.913L659.463 157.448L658.543 157.337L662.114 156.07Z" fill="#FF6A70"/>
<path d="M995.886 714.934L997.678 711.694L997.847 711.448L996.353 714.097L995.951 714.787L995.886 714.934ZM1001.31 704.889L999.591 708.174L999.394 708.41L1001.09 705.101L1001.31 704.889ZM1004.6 698.217L1002.98 701.57L1002.76 701.782L1004.35 698.419L1004.6 698.217ZM1007.67 691.398L1006.14 694.819L1005.87 695.01L1007.37 691.578L1007.67 691.398ZM1010.53 684.468L1009.11 687.945L1008.79 688.102L1010.19 684.601L1010.53 684.468ZM1013.2 677.402L1011.9 680.957L1011.56 681.09L1012.86 677.535L1013.2 677.402ZM1015.67 670.212L1014.48 673.822L1014.08 673.935L1015.25 670.3L1015.67 670.212ZM1017.88 662.878L1016.78 666.557L1016.34 666.635L1017.41 662.946L1017.88 662.878ZM1019.89 655.42L1018.93 659.165L1018.43 659.222L1019.36 655.467L1019.89 655.42ZM1021.67 647.843L1020.81 651.642L1020.26 651.665L1021.1 647.842L1021.67 647.843ZM1023.22 640.131L1022.49 643.996L1021.89 643.985L1022.6 640.096L1023.22 640.131ZM1024.52 632.314L1023.89 636.247L1023.26 636.225L1023.86 632.282L1024.52 632.314ZM1025.56 624.352L1025.06 628.35L1024.39 628.294L1024.86 624.286L1025.56 624.352ZM1026.36 616.283L1026 620.333L1025.24 620.246L1025.58 616.173L1026.36 616.283ZM1026.89 608.085L1026.66 612.2L1025.85 612.092L1026.04 607.967L1026.89 608.085ZM1027.18 599.766L1027.06 603.936L1026.2 603.794L1026.29 599.614L1027.18 599.766ZM1027.18 591.344L1027.21 595.565L1026.29 595.403L1026.23 591.171L1027.18 591.344ZM1026.91 582.805L1027.07 587.092L1026.1 586.895L1025.92 582.598L1026.91 582.805ZM1026.37 574.15L1026.67 578.488L1025.65 578.271L1025.32 573.922L1026.37 574.15ZM1025.54 565.391L1025.98 569.781L1024.9 569.543L1024.43 565.143L1025.54 565.391ZM1024.43 556.567L1025 560.984L1023.86 560.726L1023.27 556.299L1024.43 556.567ZM1023.07 547.702L1023.77 552.133L1022.58 551.854L1021.85 547.413L1023.07 547.702ZM1021.48 538.805L1022.31 543.264L1021.04 542.978L1020.18 538.523L1021.48 538.805ZM1019.64 529.867L1020.59 534.34L1019.28 534.033L1018.29 529.55L1019.64 529.867ZM1017.56 520.912L1018.62 525.388L1017.26 525.085L1016.17 520.598L1017.56 520.912ZM1015.24 511.939L1016.43 516.429L1015.02 516.105L1013.8 511.605L1015.24 511.939ZM1012.68 502.948L1013.98 507.442L1012.5 507.111L1011.16 502.621L1012.68 502.948ZM1009.87 493.968L1011.31 498.462L1009.8 498.12L1008.36 493.627L1009.87 493.968ZM1006.85 484.98L1008.39 489.477L1006.82 489.129L1005.24 484.635L1006.85 484.98ZM1003.6 476.012L1005.26 480.5L1003.65 480.155L1001.96 475.657L1003.6 476.012ZM1000.11 467.041L1001.88 471.518L1000.2 471.166L998.401 466.679L1000.11 467.041ZM996.436 458.124L998.32 462.591L996.612 462.229L994.728 457.762L996.436 458.124ZM992.545 449.213L994.514 453.66L992.739 453.291L990.732 448.848L992.545 449.213ZM988.446 440.347L990.528 444.784L988.716 444.418L986.624 439.995L988.446 440.347ZM984.138 431.525L986.316 435.927L984.465 435.565L982.259 431.152L984.138 431.525ZM979.642 422.771L981.904 427.153L979.988 426.784L977.688 422.405L979.642 422.771ZM974.947 414.047L977.304 418.395L975.35 418.029L972.955 413.685L974.947 414.047ZM970.092 405.402L972.543 409.716L970.551 409.353L968.062 405.043L970.092 405.402ZM965.048 396.825L967.594 401.105L965.563 400.746L963.008 396.479L965.048 396.825ZM959.872 388.336L962.484 392.572L960.415 392.216L957.766 387.984L959.872 388.336ZM954.498 379.929L957.204 384.131L955.098 383.779L952.382 379.591L954.498 379.929ZM948.992 371.612L951.773 375.755L949.629 375.406L946.848 371.263L948.992 371.612ZM943.316 363.386L946.163 367.485L943.972 367.153L941.115 363.068L943.316 363.386ZM937.536 355.259L940.459 359.3L938.258 358.982L935.336 354.941L937.536 355.259ZM931.606 347.248L934.595 351.245L932.356 350.93L929.359 346.947L931.606 347.248ZM925.563 339.35L928.599 343.279L926.313 342.981L923.278 339.052L925.563 339.35ZM919.399 331.579L922.509 335.449L920.214 335.165L917.104 331.294L919.399 331.579ZM913.112 323.933L916.26 327.749L913.927 327.468L910.77 323.666L913.112 323.933ZM906.769 316.421L909.964 320.169L907.612 319.915L904.408 316.182L906.769 316.421ZM900.304 309.036L903.546 312.715L901.156 312.465L897.905 308.799L900.304 309.036ZM893.774 301.797L897.063 305.408L894.664 305.172L891.366 301.575L893.774 301.797ZM887.179 294.706L890.486 298.238L888.069 298.029L884.752 294.51L887.179 294.706ZM880.491 287.751L883.844 291.215L881.417 291.019L878.054 287.569L880.491 287.751ZM873.765 280.953L877.137 284.338L874.692 284.17L871.31 280.799L873.765 280.953ZM866.994 274.327L870.394 277.619L867.939 277.465L864.539 274.172L866.994 274.327ZM860.158 267.847L863.576 271.061L861.102 270.934L857.675 267.733L860.158 267.847ZM853.304 261.549L856.74 264.684L854.257 264.571L850.812 261.449L853.304 261.549ZM846.423 255.394L849.849 258.44L847.347 258.354L843.912 255.321L846.423 255.394ZM839.515 249.434L842.959 252.402L840.448 252.329L836.995 249.375L839.515 249.434ZM832.609 243.628L836.081 246.504L833.579 246.469L830.136 243.604L832.609 243.628ZM825.704 238.027L829.166 240.814L826.655 240.793L823.184 238.02L825.704 238.027ZM818.8 232.581L822.252 235.278L819.722 235.285L816.261 232.601L818.8 232.581ZM811.908 227.326L815.349 229.934L812.839 229.965L809.388 227.369L811.908 227.326ZM805.035 222.248L808.467 224.768L805.938 224.826L802.497 222.32L805.035 222.248ZM798.184 217.349L801.605 219.78L799.095 219.861L795.693 217.455L798.184 217.349ZM791.381 212.638L794.792 214.98L792.301 215.085L788.909 212.767L791.381 212.638ZM784.618 208.129L787.99 210.371L785.48 210.504L782.099 208.275L784.618 208.129ZM777.884 203.784L781.246 205.938L778.756 206.094L775.413 203.965L777.884 203.784ZM771.219 199.651L774.542 201.706L772.061 201.9L768.729 199.859L771.219 199.651ZM764.612 195.693L767.896 197.648L765.435 197.867L762.141 195.925L764.612 195.693ZM758.053 191.923L761.327 193.789L758.876 194.045L755.621 192.203L758.053 191.923ZM751.582 188.338L751.715 188.403L754.789 190.095L752.328 190.364L749.245 188.687L749.112 188.621L751.582 188.338ZM745.188 184.951L748.385 186.619L745.971 186.923L742.803 185.266L745.188 184.951ZM738.852 181.739L742.001 183.321L739.578 183.639L736.449 182.081L738.852 181.739ZM732.632 178.722L735.742 180.205L733.329 180.561L730.247 179.088L732.632 178.722ZM726.498 175.891L729.56 177.288L727.195 177.677L724.152 176.304L726.498 175.891ZM720.451 173.243L723.474 174.541L721.128 174.955L718.133 173.667L720.451 173.243ZM714.519 170.791L717.466 171.993L715.139 172.431L712.192 171.229L714.519 170.791ZM708.684 168.511L711.582 169.627L709.275 170.089L706.367 168.986L708.684 168.511ZM702.944 166.401L705.795 167.432L703.506 167.917L700.675 166.911L702.944 166.401ZM697.32 164.487L700.123 165.432L697.844 165.955L695.061 165.034L697.32 164.487ZM691.821 162.754L694.547 163.603L692.316 164.161L689.58 163.325L691.821 162.754ZM686.446 161.202L689.124 161.966L686.912 162.548L684.253 161.808L686.446 161.202ZM681.177 159.809L683.778 160.476L681.585 161.082L678.975 160.428L681.177 159.809ZM676.032 158.596L678.586 159.178L676.44 159.818L673.916 159.246L676.032 158.596ZM671.05 157.562L673.546 158.072L671.42 158.736L668.943 158.25L671.05 157.562ZM666.174 156.685L668.593 157.1L666.486 157.787L664.095 157.383L666.174 156.685Z" fill="#FF6A70"/>
<path d="M940.465 812.731L941.576 810.745L941.875 810.256L941.464 810.96L940.465 812.731ZM945.375 803.797L943.649 807.044L943.321 807.522L945.018 804.265L945.375 803.797ZM948.646 797.203L947.015 800.519L946.668 800.973L948.27 797.647L948.646 797.203ZM951.707 790.449L950.2 793.843L949.806 794.263L951.284 790.859L951.707 790.449ZM954.577 783.557L953.166 787.02L952.724 787.406L954.107 783.933L954.577 783.557ZM957.22 776.532L955.932 780.073L955.433 780.439L956.692 776.887L957.22 776.532ZM959.652 769.345L958.46 772.955L957.941 773.297L959.105 769.676L959.652 769.345ZM961.856 762.025L960.787 765.714L960.221 766.021L961.262 762.321L961.856 762.025ZM963.812 754.547L962.877 758.301L962.254 758.587L963.17 754.809L963.812 754.547ZM965.512 746.924L964.672 750.748L964.001 751L964.784 747.156L965.512 746.924ZM966.983 739.168L966.266 743.07L965.548 743.288L966.236 739.376L966.983 739.168ZM968.206 731.255L967.623 735.222L966.819 735.409L967.374 731.431L968.206 731.255ZM969.134 723.2L968.675 727.246L967.824 727.399L968.226 723.332L969.134 723.2ZM969.834 715.012L969.537 719.134L968.628 719.266L968.898 715.134L969.834 715.012ZM970.249 706.67L970.084 710.856L969.128 710.954L969.264 706.757L970.249 706.67ZM970.397 698.197L970.366 702.448L969.362 702.512L969.374 698.236L970.397 698.197ZM970.251 689.583L970.352 693.9L969.263 693.932L969.142 689.591L970.251 689.583ZM969.809 680.828L970.073 685.221L968.936 685.219L968.644 680.816L969.809 680.828ZM969.101 671.943L969.498 676.401L968.304 676.379L967.879 671.911L969.101 671.943ZM968.051 662.935L968.61 667.468L967.33 667.415L966.743 662.871L968.051 662.935ZM966.754 653.82L967.436 658.381L966.109 658.293L965.399 653.722L966.754 653.82ZM965.191 644.626L966.016 649.238L964.632 649.13L963.779 644.507L965.191 644.626ZM963.382 635.376L964.329 640.017L962.879 639.901L961.903 635.251L963.382 635.376ZM961.297 626.062L962.377 630.716L960.87 630.58L959.77 625.902L961.297 626.062ZM958.956 616.706L960.159 621.387L958.595 621.231L957.363 616.539L958.956 616.706ZM956.368 607.294L957.695 612.003L956.073 611.826L954.718 607.107L956.368 607.294ZM953.543 597.866L954.974 602.578L953.286 602.394L951.826 597.671L953.543 597.866ZM950.462 588.395L952.017 593.136L950.3 592.941L948.708 588.204L950.462 588.395ZM947.172 578.918L948.86 583.672L947.087 583.457L945.361 578.706L947.172 578.918ZM943.617 569.413L945.419 574.157L943.579 573.935L941.749 569.181L943.617 569.413ZM939.854 559.9L941.759 564.648L939.863 564.405L937.929 559.648L939.854 559.9ZM935.863 550.408L937.873 555.159L935.938 554.92L933.891 550.172L935.863 550.408ZM931.693 540.919L933.816 545.66L931.824 545.4L929.673 540.649L931.693 540.919ZM927.266 531.44L929.503 536.171L927.474 535.915L925.209 531.173L927.266 531.44ZM922.642 521.991L924.963 526.702L922.868 526.438L920.517 521.717L922.642 521.991ZM917.846 512.583L920.282 517.284L918.157 517.01L915.693 512.299L917.846 512.583ZM912.843 503.219L915.364 507.899L913.201 507.629L910.652 502.939L912.843 503.219ZM907.641 493.886L910.247 498.546L908.018 498.268L905.375 493.612L907.641 493.886ZM902.288 484.617L904.988 489.243L902.722 488.969L899.993 484.333L902.288 484.617ZM896.746 475.417L899.541 480.008L897.246 479.724L894.451 475.132L896.746 475.417ZM891.082 466.291L893.942 470.839L891.61 470.558L888.721 466L891.082 466.291ZM885.229 457.234L888.155 461.737L885.784 461.459L882.829 456.946L885.229 457.234ZM879.243 448.265L882.264 452.734L879.856 452.46L876.835 447.991L879.243 448.265ZM873.126 439.385L876.213 443.81L873.767 443.539L870.68 439.115L873.126 439.385ZM866.896 430.618L870.021 434.988L867.556 434.745L864.393 430.378L866.896 430.618ZM860.525 421.953L863.715 426.279L861.222 426.025L858.022 421.713L860.525 421.953ZM854.041 413.401L857.278 417.659L854.738 417.422L851.463 413.168L854.041 413.401ZM847.473 404.972L850.786 409.171L848.235 408.948L844.923 404.749L847.473 404.972ZM840.792 396.656L844.142 400.8L841.554 400.581L838.195 396.45L840.792 396.656ZM834.046 388.486L837.443 392.563L834.845 392.357L831.439 388.294L834.046 388.486ZM827.216 380.44L830.631 384.438L827.996 384.235L824.571 380.251L827.216 380.44ZM820.349 372.551L823.811 376.48L821.157 376.305L817.695 372.376L820.349 372.551ZM813.379 364.812L816.859 368.663L814.196 368.501L810.716 364.651L813.379 364.812ZM806.382 357.217L809.881 360.989L807.208 360.841L803.71 357.069L806.382 357.217ZM799.349 349.779L802.865 353.473L800.183 353.338L796.657 349.659L799.349 349.779ZM792.278 342.499L795.813 346.114L793.112 346.007L789.568 342.406L792.278 342.499ZM785.191 335.4L788.744 338.936L786.034 338.842L782.471 335.32L785.191 335.4ZM778.095 328.468L781.638 331.915L778.918 331.836L775.366 328.402L778.095 328.468ZM770.991 321.704L774.552 325.072L771.842 325.031L768.3 321.686L770.991 321.704ZM763.898 315.132L767.459 318.397L764.739 318.369L761.179 315.103L763.898 315.132ZM756.797 308.727L760.347 311.904L757.619 311.889L754.069 308.712L756.797 308.727ZM749.717 302.5L753.257 305.588L750.538 305.611L746.989 302.537L749.717 302.5ZM742.676 296.475L746.177 299.463L743.477 299.51L739.967 296.536L742.676 296.475ZM735.655 290.628L739.146 293.527L736.437 293.588L732.937 290.702L735.655 290.628ZM728.703 284.993L732.183 287.804L729.484 287.902L726.022 285.115L728.703 284.993ZM721.78 279.522L725.231 282.22L722.551 282.342L719.1 279.644L721.78 279.522ZM714.925 274.264L718.366 276.872L715.677 277.008L712.264 274.41L714.925 274.264ZM708.119 269.193L711.522 271.703L708.842 271.877L705.468 269.377L708.119 269.193ZM701.391 264.322L704.755 266.732L702.094 266.93L698.759 264.53L701.391 264.322ZM694.711 259.638L698.037 261.949L695.395 262.171L692.099 259.87L694.711 259.638ZM688.138 255.164L691.425 257.375L688.802 257.621L685.544 255.419L688.138 255.164ZM681.642 250.888L684.89 253L682.277 253.283L679.058 251.181L681.642 250.888ZM675.261 246.807L678.432 248.823L675.839 249.13L672.658 247.127L675.261 246.807ZM668.958 242.924L672.09 244.841L669.516 245.172L666.374 243.269L668.958 242.924ZM662.77 239.237L665.863 241.055L663.309 241.41L660.243 239.602L662.77 239.237ZM656.668 235.734L659.686 237.456L657.15 237.836L654.123 236.127L656.668 235.734ZM650.701 232.451L653.68 234.074L651.192 234.487L648.242 232.875L650.701 232.451ZM644.859 229.349L647.761 230.876L645.292 231.314L642.381 229.8L644.859 229.349ZM639.132 226.443L641.995 227.87L639.546 228.332L636.711 226.914L639.132 226.443ZM633.521 223.731L636.307 225.063L633.905 225.559L631.147 224.237L633.521 223.731ZM628.034 221.201L630.744 222.437L628.361 222.957L625.641 221.735L628.034 221.201ZM622.69 218.877L625.352 220.027L622.988 220.571L620.346 219.445L622.69 218.877ZM617.472 216.734L620.057 217.788L617.741 218.366L615.175 217.336L617.472 216.734ZM612.387 214.759L614.896 215.717L612.599 216.319L610.081 215.374L612.387 214.759ZM607.446 212.989L609.907 213.862L607.658 214.498L605.216 213.649L607.446 212.989ZM602.668 211.398L605.052 212.175L602.822 212.835L600.466 212.068L602.668 211.398ZM598.024 209.974L600.332 210.655L598.149 211.35L595.87 210.679L598.024 209.974ZM593.504 208.732L595.726 209.331L593.572 210.035L591.369 209.461L593.504 208.732ZM589.147 207.668L591.321 208.181L589.214 208.92L587.069 208.417L589.147 207.668ZM584.962 206.768L587.05 207.199L584.962 207.962L582.903 207.542L584.962 206.768ZM580.949 206.033L582.922 206.372L580.892 207.155L578.947 206.827L580.949 206.033ZM577.154 205.446L579.032 205.716L577.059 206.52L575.21 206.26L577.154 205.446ZM573.579 205.006L575.324 205.21L573.37 206.038L571.625 205.834L573.579 205.006ZM570.233 204.699L571.882 204.835L569.985 205.684L568.364 205.558L570.233 204.699ZM567.086 204.516L568.631 204.597L566.791 205.467L565.274 205.396L567.086 204.516ZM564.139 204.457L565.589 204.469L563.806 205.359L562.385 205.357L564.139 204.457ZM561.421 204.531L562.766 204.489L561.021 205.375L559.704 205.428L561.421 204.531ZM558.883 204.705L560.124 204.608L558.435 205.515L557.224 205.622L558.883 204.705ZM556.574 205.012L557.719 204.847L556.088 205.775L554.981 205.937L556.574 205.012Z" fill="#FF6A70"/>
<path d="M1083.04 560.931L1081.26 564.157L1081.26 564.106L1083.02 560.869L1083.04 560.931ZM1086.46 554.389L1084.78 557.67L1084.75 557.608L1086.4 554.317L1086.46 554.389ZM1089.69 547.747L1088.12 551.083L1088.07 550.998L1089.65 547.648L1089.69 547.747ZM1092.75 540.993L1091.25 544.387L1091.14 544.281L1092.62 540.876L1092.75 540.993ZM1095.59 534.142L1094.19 537.591L1094.07 537.461L1095.44 534.002L1095.59 534.142ZM1098.27 527.178L1096.97 530.683L1096.8 530.518L1098.09 527.014L1098.27 527.178ZM1100.73 520.105L1099.51 523.654L1099.28 523.468L1100.47 519.909L1100.73 520.105ZM1102.97 512.935L1101.86 516.525L1101.61 516.33L1102.69 512.716L1102.97 512.935ZM1105.03 505.666L1104.03 509.311L1103.73 509.081L1104.7 505.426L1105.03 505.666ZM1106.89 498.287L1105.99 501.986L1105.65 501.746L1106.52 498.036L1106.89 498.287ZM1108.48 490.815L1107.7 494.556L1107.32 494.282L1108.07 490.53L1108.48 490.815ZM1109.9 483.243L1109.22 487.039L1108.78 486.745L1109.43 482.938L1109.9 483.243ZM1111.06 475.579L1110.49 479.417L1110 479.101L1110.53 475.254L1111.06 475.579ZM1111.99 467.833L1111.57 471.722L1111.05 471.382L1111.47 467.493L1111.99 467.833ZM1112.7 459.99L1112.39 463.92L1111.82 463.56L1112.1 459.62L1112.7 459.99ZM1113.15 452.068L1112.95 456.04L1112.32 455.659L1112.49 451.677L1113.15 452.068ZM1113.37 444.05L1113.29 448.063L1112.61 447.662L1112.66 443.639L1113.37 444.05ZM1113.31 435.943L1113.37 440.007L1112.63 439.585L1112.54 435.511L1113.31 435.943ZM1113.02 427.791L1113.21 431.882L1112.41 431.44L1112.19 427.338L1113.02 427.791ZM1112.45 419.536L1112.76 423.655L1111.91 423.192L1111.57 419.062L1112.45 419.536ZM1111.67 411.287L1112.11 415.42L1111.22 414.946L1110.78 410.813L1111.67 411.287ZM1110.64 403.021L1111.19 407.157L1110.23 406.677L1109.66 402.53L1110.64 403.021ZM1109.37 394.751L1110.03 398.877L1109.04 398.4L1108.35 394.263L1109.37 394.751ZM1107.88 386.487L1108.64 390.617L1107.59 390.133L1106.79 386.006L1107.88 386.487ZM1106.14 378.22L1107.05 382.35L1105.97 381.856L1105.06 377.725L1106.14 378.22ZM1104.18 369.972L1105.2 374.093L1104.05 373.591L1103.03 369.471L1104.18 369.972ZM1102.02 361.756L1103.13 365.856L1101.94 365.358L1100.8 361.247L1102.02 361.756ZM1099.63 353.559L1100.85 357.649L1099.62 357.154L1098.38 353.054L1099.63 353.559ZM1097.01 345.396L1098.34 349.476L1097.05 348.975L1095.68 344.898L1097.01 345.396ZM1094.18 337.264L1095.64 341.32L1094.31 340.822L1092.85 336.766L1094.18 337.264ZM1091.17 329.2L1092.71 333.235L1091.34 332.741L1089.77 328.708L1091.17 329.2ZM1087.93 321.156L1089.57 325.157L1088.16 324.666L1086.5 320.654L1087.93 321.156ZM1084.5 313.18L1086.25 317.171L1084.78 316.673L1083.02 312.695L1084.5 313.18ZM1080.87 305.248L1082.71 309.206L1081.19 308.724L1079.34 304.781L1080.87 305.248ZM1077.03 297.398L1078.97 301.322L1077.41 300.844L1075.46 296.934L1077.03 297.398ZM1073.05 289.613L1075.08 293.502L1073.48 293.028L1071.44 289.152L1073.05 289.613ZM1068.86 281.91L1070.96 285.754L1069.32 285.283L1067.19 281.442L1068.86 281.91ZM1064.51 274.298L1066.71 278.095L1065.03 277.641L1062.83 273.844L1064.51 274.298ZM1059.96 266.755L1062.26 270.518L1060.54 270.067L1058.24 266.318L1059.96 266.755ZM1055.28 259.314L1057.65 263.019L1055.89 262.572L1053.52 258.866L1055.28 259.314ZM1050.45 251.976L1052.89 255.636L1051.12 255.216L1048.67 251.569L1050.45 251.976ZM1045.45 244.743L1047.96 248.346L1046.15 247.929L1043.6 244.329L1045.45 244.743ZM1040.31 237.599L1042.9 241.144L1041.04 240.744L1038.42 237.189L1040.31 237.599ZM1035.02 230.585L1037.67 234.085L1035.8 233.699L1033.14 230.212L1035.02 230.585ZM1029.62 223.669L1032.34 227.112L1030.43 226.743L1027.69 223.314L1029.62 223.669ZM1024.08 216.894L1026.86 220.268L1024.93 219.913L1022.15 216.553L1024.08 216.894ZM1018.43 210.245L1021.28 213.561L1019.31 213.223L1016.45 209.921L1018.43 210.245ZM1012.67 203.709L1015.56 206.957L1013.58 206.632L1010.67 203.398L1012.67 203.709ZM1006.8 197.324L1009.74 200.503L1007.71 200.195L1004.76 197.03L1006.8 197.324ZM1000.84 191.061L1003.83 194.172L1001.78 193.891L998.784 190.794L1000.84 191.061ZM994.814 184.959L997.852 188.001L995.794 187.735L992.747 184.706L994.814 184.959ZM988.664 178.983L991.749 181.957L989.672 181.718L986.578 178.757L988.664 178.983ZM982.468 173.178L985.58 176.06L983.456 175.838L980.344 172.956L982.468 173.178ZM976.179 167.51L979.337 170.324L977.204 170.115L974.045 167.302L976.179 167.51ZM969.824 161.989L973.001 164.724L970.849 164.543L967.663 161.822L969.824 161.989ZM963.461 156.636L966.656 159.292L964.486 159.138L961.281 156.495L963.461 156.636ZM956.995 151.433L960.209 154.01L958.029 153.87L954.806 151.306L956.995 151.433ZM950.521 146.397L953.753 148.896L951.583 148.793L948.342 146.308L950.521 146.397ZM944.001 141.533L947.261 143.939L945.081 143.85L941.822 141.444L944.001 141.533ZM937.454 136.812L940.732 139.14L938.534 139.078L935.256 136.75L937.454 136.812ZM930.89 132.272L934.186 134.521L931.969 134.487L928.692 132.262L930.89 132.272ZM924.317 127.9L927.603 130.06L925.405 130.05L922.11 127.903L924.317 127.9Z" fill="#01BCC8"/>
<path d="M1042.11 633.218L1040.34 636.468L1040.28 636.564L1042.04 633.313L1042.11 633.218ZM1045.52 626.624L1043.82 629.933L1043.7 630.008L1045.37 626.689L1045.52 626.624ZM1048.72 619.921L1047.13 623.285L1046.99 623.336L1048.55 619.962L1048.72 619.921ZM1051.77 613.092L1050.27 616.524L1050.08 616.54L1051.55 613.098L1051.77 613.092ZM1054.6 606.152L1053.21 609.639L1052.99 609.645L1054.35 606.148L1054.6 606.152ZM1057.23 599.089L1055.94 602.631L1055.68 602.603L1056.94 599.051L1057.23 599.089ZM1059.65 591.916L1058.47 595.513L1058.16 595.451L1059.32 591.83L1059.65 591.916ZM1061.87 584.633L1060.79 588.285L1060.45 588.213L1061.51 584.537L1061.87 584.633ZM1063.87 577.241L1062.9 580.947L1062.51 580.841L1063.46 577.11L1063.87 577.241ZM1065.65 569.715L1064.81 573.486L1064.36 573.359L1065.21 569.574L1065.65 569.715ZM1067.18 562.082L1066.44 565.908L1065.94 565.761L1066.64 561.924L1067.18 562.082ZM1068.49 554.353L1067.86 558.235L1067.3 558.052L1067.91 554.16L1068.49 554.353ZM1069.56 546.504L1069.06 550.451L1068.48 550.258L1068.98 546.312L1069.56 546.504ZM1070.38 538.549L1070 542.537L1069.37 542.31L1069.73 538.312L1070.38 538.549ZM1070.95 530.501L1070.71 534.54L1070.03 534.293L1070.25 530.229L1070.95 530.501ZM1071.27 522.346L1071.14 526.44L1070.4 526.172L1070.5 522.068L1071.27 522.346ZM1071.35 514.085L1071.35 518.231L1070.56 517.942L1070.52 513.786L1071.35 514.085ZM1071.16 505.745L1071.28 509.932L1070.43 509.609L1070.28 505.411L1071.16 505.745ZM1070.68 497.301L1070.94 501.54L1070.04 501.197L1069.74 496.961L1070.68 497.301ZM1069.94 488.779L1070.32 493.045L1069.36 492.681L1068.95 488.405L1069.94 488.779ZM1068.97 480.226L1069.48 484.506L1068.46 484.135L1067.91 479.844L1068.97 480.226ZM1067.73 471.644L1068.38 475.938L1067.3 475.547L1066.62 471.242L1067.73 471.644ZM1066.29 463.056L1067.04 467.354L1065.92 466.965L1065.14 462.657L1066.29 463.056ZM1064.57 454.453L1065.46 458.765L1064.28 458.356L1063.35 454.048L1064.57 454.453ZM1062.61 445.833L1063.61 450.135L1062.37 449.719L1061.34 445.407L1062.61 445.833ZM1060.44 437.22L1061.54 441.525L1060.26 441.112L1059.12 436.81L1060.44 437.22ZM1058.04 428.626L1059.26 432.921L1057.92 432.488L1056.67 428.183L1058.04 428.626ZM1055.42 420.039L1056.75 424.324L1055.37 423.894L1054.01 419.599L1055.42 420.039ZM1052.57 411.473L1054.02 415.747L1052.6 415.321L1051.13 411.036L1052.57 411.473ZM1049.49 402.94L1051.05 407.204L1049.57 406.771L1047.98 402.496L1049.49 402.94ZM1046.22 394.423L1047.89 398.678L1046.37 398.248L1044.69 394.007L1046.22 394.423ZM1042.7 385.955L1044.47 390.175L1042.88 389.738L1041.08 385.507L1042.7 385.955ZM1039.01 377.527L1040.89 381.738L1039.27 381.304L1037.38 377.107L1039.01 377.527ZM1035.1 369.157L1037.08 373.333L1035.42 372.903L1033.44 368.727L1035.1 369.157ZM1031.02 360.841L1033.09 364.984L1031.39 364.557L1029.29 360.404L1031.02 360.841ZM1026.74 352.594L1028.9 356.716L1027.16 356.292L1024.97 352.174L1026.74 352.594ZM1022.28 344.414L1024.53 348.502L1022.73 348.072L1020.47 343.998L1022.28 344.414ZM1017.66 336.313L1020.01 340.354L1018.19 339.951L1015.84 335.91L1017.66 336.313ZM1012.85 328.281L1015.27 332.276L1013.38 331.866L1010.93 327.86L1012.85 328.281ZM1007.86 320.34L1010.38 324.302L1008.48 323.905L1005.96 319.957L1007.86 320.34ZM1002.74 312.501L1005.33 316.405L1003.4 316.012L1000.81 312.108L1002.74 312.501ZM997.476 304.765L1000.13 308.625L998.149 308.249L995.484 304.403L997.476 304.765ZM992.042 297.121L994.773 300.923L992.752 300.55L990.021 296.749L992.042 297.121ZM986.495 289.59L989.292 293.347L987.262 292.988L984.455 289.245L986.495 289.59ZM980.797 282.175L983.67 285.874L981.592 285.532L978.71 281.847L980.797 282.175ZM974.977 274.886L977.897 278.517L975.781 278.178L972.853 274.561L974.977 274.886ZM969.073 267.721L972.039 271.283L969.905 270.972L966.901 267.413L969.073 267.721ZM963.019 260.671L966.06 264.175L963.888 263.867L960.837 260.377L963.019 260.671ZM956.899 253.768L959.987 257.204L957.796 256.924L954.699 253.501L956.899 253.768ZM950.685 247.002L953.82 250.37L951.62 250.103L948.476 246.749L950.685 247.002ZM944.369 240.387L947.522 243.676L945.275 243.426L942.084 240.14L944.369 240.387ZM937.968 233.894L941.169 237.115L938.912 236.878L935.702 233.671L937.968 233.894ZM931.522 227.572L934.769 230.725L932.493 230.516L929.237 227.377L931.522 227.572ZM925.01 221.398L928.275 224.471L925.981 224.29L922.707 221.23L925.01 221.398ZM918.424 215.384L921.717 218.365L919.413 218.197L916.12 215.216L918.424 215.384ZM911.801 209.527L915.112 212.43L912.79 212.289L909.47 209.4L911.801 209.527ZM905.142 203.827L908.471 206.652L906.14 206.525L902.801 203.714L905.142 203.827ZM898.465 198.309L901.813 201.055L899.462 200.955L896.105 198.223L898.465 198.309ZM891.752 192.948L895.118 195.615L892.787 195.54L889.411 192.887L891.752 192.948ZM884.992 187.759L888.357 190.323L886.008 190.274L882.642 187.71L884.992 187.759ZM878.263 182.733L881.646 185.218L879.278 185.197L875.913 182.736L878.263 182.733ZM871.515 177.888L874.889 180.285L872.539 180.288L869.157 177.905L871.515 177.888ZM864.779 173.236L868.143 175.543L865.774 175.574L862.402 173.28L864.779 173.236ZM858.045 168.737L861.398 170.955L859.049 171.01L855.686 168.805L858.045 168.737ZM851.321 164.43L854.664 166.559L852.296 166.641L848.944 164.525L851.321 164.43ZM844.627 160.287L847.96 162.327L845.611 162.433L842.269 160.406L844.627 160.287ZM837.973 156.345L841.295 158.297L838.928 158.43L835.596 156.492L837.973 156.345ZM831.348 152.568L834.66 154.431L832.312 154.588L828.991 152.739L831.348 152.568ZM824.772 148.98L828.074 150.754L825.736 150.948L822.462 149.185L824.772 148.98ZM818.217 145.569L821.48 147.244L819.133 147.452L815.869 145.777L818.217 145.569ZM811.749 142.343L814.992 143.942L812.654 144.188L809.43 142.613L811.749 142.343ZM805.31 139.281L808.515 140.781L806.196 141.051L802.982 139.565L805.31 139.281ZM798.949 136.418L802.105 137.833L799.806 138.127L796.64 136.726L798.949 136.418ZM792.674 133.74L795.821 135.065L793.531 135.397L790.403 134.096L792.674 133.74ZM786.458 131.236L789.556 132.476L787.286 132.832L784.206 131.616L786.458 131.236ZM780.309 128.893L783.369 130.034L781.117 130.414L778.086 129.283L780.309 128.893ZM774.276 126.746L777.288 127.801L775.046 128.218L772.025 127.177L774.276 126.746ZM768.301 124.773L771.264 125.742L769.042 126.183L766.069 125.227L768.301 124.773ZM762.45 122.981L765.366 123.865L763.162 124.33L760.237 123.46L762.45 122.981ZM756.668 121.35L759.535 122.149L757.351 122.638L754.502 121.863L756.668 121.35ZM751.009 119.901L753.829 120.614L751.664 121.127L748.863 120.438L751.009 119.901ZM745.428 118.599L748.2 119.226L746.073 119.787L743.321 119.184L745.428 118.599ZM739.962 117.492L742.686 118.034L740.578 118.619L737.874 118.101L739.962 117.492ZM734.631 116.553L737.306 117.009L735.217 117.618L732.571 117.172L734.631 116.553Z" fill="#01BCC8"/>
</g>
<defs>
<clipPath id="clip0_15_459">
<rect width="1095.32" height="994.82" fill="white" transform="matrix(0.565064 -0.825047 0.940401 0.340068 0 903.693)"/>
</clipPath>
</defs>
</svg>
