<svg width="282" height="51" viewBox="0 0 282 51" fill="none" xmlns="http://www.w3.org/2000/svg">
<g clip-path="url(#clip0_15_9400)">
<path d="M92.0101 28.4198V30.8855C92.0101 32.0534 91.7506 33.2214 91.3612 34.3893C90.8421 35.4275 90.323 36.4656 89.4146 37.2443C88.636 38.1527 87.5978 38.8015 86.5596 39.3206C85.5214 39.8397 84.3534 40.0992 83.0557 40.0992C82.0175 40.0992 80.8495 39.9695 79.8113 39.7099C78.6433 39.4504 77.7349 38.9313 76.8265 38.1527C75.9181 37.374 75.2692 36.4656 74.6203 35.2977C74.1012 34.1298 73.7119 32.7023 73.7119 30.8855V9.08397C73.7119 7.78626 73.9715 6.61832 74.3608 5.45038C74.7501 4.28244 75.399 3.37405 76.1776 2.59542C76.9563 1.81679 77.9945 1.16794 79.0327 0.648855C80.3304 0.259542 81.6282 0 82.9259 0C85.5214 0 87.7276 0.908397 89.4146 2.59542C90.1933 3.50382 90.8421 4.41221 91.3612 5.58015C91.8803 6.74809 92.0101 8.0458 92.0101 9.34351V11.5496H86.4298V9.73282C86.4298 8.56489 86.1703 7.65649 85.5214 6.87786C84.8725 6.09924 84.0939 5.70992 82.9259 5.70992C81.4984 5.70992 80.59 6.09924 80.2006 7.00763C79.6815 7.91603 79.5518 8.9542 79.5518 10.2519V30.3664C79.5518 31.5344 79.8113 32.4427 80.3304 33.2214C80.8495 34 81.7579 34.3893 83.0557 34.3893C83.445 34.3893 83.8343 34.3893 84.2236 34.2595C84.613 34.1298 85.0023 33.8702 85.3916 33.6107C85.7809 33.3511 86.0405 32.9618 86.1703 32.4427C86.4298 31.9237 86.5596 31.2748 86.5596 30.4962V28.5496H92.0101V28.4198Z" fill="#404040"/>
<path d="M106.934 39.71V36.855H106.804C106.026 37.8932 105.377 38.6718 104.598 39.1909C103.82 39.71 102.781 39.9695 101.484 39.9695C100.835 39.9695 100.186 39.8398 99.4073 39.71C98.7584 39.4505 98.1095 39.1909 97.4607 38.5421C96.8118 38.023 96.2927 37.2444 95.9034 36.336C95.5141 35.2978 95.3843 34.1298 95.3843 32.5726C95.3843 31.0153 95.5141 29.5879 95.7736 28.4199C96.0332 27.252 96.5522 26.2138 97.2011 25.4352C97.85 24.6566 98.7584 24.1375 99.9264 23.7482C101.094 23.3589 102.522 23.2291 104.339 23.2291C104.468 23.2291 104.728 23.2291 104.988 23.2291C105.247 23.2291 105.377 23.2291 105.636 23.2291C105.766 23.2291 106.026 23.2291 106.285 23.2291C106.545 23.2291 106.804 23.2291 107.064 23.2291V20.2443C107.064 19.336 106.804 18.5573 106.415 17.9085C106.026 17.2596 105.247 17.0001 104.209 17.0001C103.43 17.0001 102.781 17.2596 102.133 17.7787C101.484 18.2978 101.094 18.9466 100.965 19.855H95.514C95.6438 17.3894 96.5522 15.3131 98.1095 13.7558C98.8882 12.9772 99.6668 12.4581 100.705 12.0688C101.743 11.6795 102.911 11.4199 104.209 11.4199C105.377 11.4199 106.545 11.5497 107.583 11.939C108.621 12.3283 109.53 12.8474 110.308 13.626C111.087 14.4047 111.606 15.3131 112.125 16.3512C112.515 17.5192 112.774 18.6871 112.774 20.2443V39.71H106.934ZM106.934 27.6413C106.285 27.5115 105.766 27.5115 105.377 27.5115C104.209 27.5115 103.171 27.7711 102.262 28.4199C101.354 29.0688 100.965 29.9772 100.965 31.5344C100.965 32.5726 101.224 33.481 101.743 34.1298C102.262 34.7787 103.041 35.168 103.949 35.168C104.858 35.168 105.636 34.9085 106.156 34.2596C106.675 33.6108 106.934 32.7024 106.934 31.6642V27.6413Z" fill="#404040"/>
<path d="M116.667 51.0001V11.6795H122.248V14.2749C122.896 13.4963 123.675 12.8474 124.454 12.1985C125.232 11.6795 126.271 11.4199 127.698 11.4199C130.034 11.4199 131.721 12.3283 132.629 14.0153C133.019 14.6642 133.149 15.4428 133.408 16.3512C133.538 17.2596 133.668 18.5573 133.668 20.1146V30.7558C133.668 32.8321 133.668 34.2596 133.538 35.168C133.278 36.9848 132.5 38.4123 130.942 39.3207C130.164 39.8398 129.126 40.0993 127.698 40.0993C126.53 40.0993 125.622 39.8398 124.713 39.3207C123.805 38.8016 123.156 38.1527 122.507 37.2443H122.377V51.1298H116.667V51.0001ZM127.958 20.7634C127.958 19.5955 127.698 18.6871 127.309 18.0382C126.919 17.3894 126.141 17.0001 125.232 17.0001C124.324 17.0001 123.675 17.2596 123.156 17.9085C122.637 18.5573 122.377 19.336 122.377 20.3741V31.2749C122.377 32.1833 122.637 32.8321 123.156 33.481C123.675 34.0001 124.324 34.3894 125.232 34.3894C126.271 34.3894 127.049 34.0001 127.439 33.3512C127.828 32.7024 127.958 31.9237 127.958 31.0153V20.7634Z" fill="#404040"/>
<path d="M138.21 5.96956V0.389404H143.79V5.96956H138.21ZM138.21 39.71V11.6795H143.79V39.71H138.21Z" fill="#404040"/>
<path d="M149.76 11.6794V3.1145H155.34V11.6794H158.844V16.0916H155.34V31.6641C155.34 32.313 155.34 32.8321 155.47 33.2214C155.6 33.6107 155.859 33.8702 156.119 34C156.378 34.1298 156.768 34.2595 157.157 34.3893C157.546 34.3893 158.065 34.3893 158.714 34.3893V39.7099H156.378C155.08 39.7099 154.042 39.4504 153.134 39.0611C152.225 38.6718 151.577 38.1527 151.057 37.5038C150.538 36.855 150.149 36.2061 149.89 35.4275C149.63 34.6489 149.5 33.8702 149.5 33.0916V16.0916H146.645V11.6794H149.76Z" fill="#404040"/>
<path d="M172.989 39.71V36.855H172.86C172.081 37.8932 171.432 38.6718 170.653 39.1909C169.875 39.71 168.837 39.9695 167.539 39.9695C166.89 39.9695 166.241 39.8398 165.462 39.71C164.814 39.4505 164.165 39.1909 163.516 38.5421C162.867 38.023 162.348 37.2444 161.959 36.336C161.569 35.2978 161.439 34.1298 161.439 32.5726C161.439 31.0153 161.569 29.5879 161.829 28.4199C162.088 27.252 162.607 26.2138 163.256 25.4352C163.905 24.6566 164.814 24.1375 165.982 23.7482C167.15 23.3589 168.577 23.2291 170.394 23.2291C170.524 23.2291 170.783 23.2291 171.043 23.2291C171.302 23.2291 171.432 23.2291 171.692 23.2291C171.821 23.2291 172.081 23.2291 172.341 23.2291C172.6 23.2291 172.86 23.2291 173.119 23.2291V20.2443C173.119 19.336 172.86 18.5573 172.47 17.9085C172.081 17.2596 171.302 17.0001 170.264 17.0001C169.485 17.0001 168.837 17.2596 168.188 17.7787C167.539 18.2978 167.15 18.9466 167.02 19.855H161.569C161.699 17.3894 162.607 15.3131 164.165 13.7558C164.943 12.9772 165.722 12.4581 166.76 12.0688C167.798 11.6795 168.966 11.4199 170.264 11.4199C171.432 11.4199 172.6 11.5497 173.638 11.939C174.676 12.3283 175.585 12.8474 176.364 13.626C177.142 14.4047 177.661 15.3131 178.18 16.3512C178.57 17.5192 178.829 18.6871 178.829 20.2443V39.71H172.989ZM172.989 27.6413C172.341 27.5115 171.821 27.5115 171.432 27.5115C170.264 27.5115 169.226 27.7711 168.317 28.4199C167.409 29.0688 167.02 29.9772 167.02 31.5344C167.02 32.5726 167.279 33.481 167.798 34.1298C168.318 34.7787 169.096 35.168 170.005 35.168C170.913 35.168 171.692 34.9085 172.211 34.2596C172.73 33.6108 172.989 32.7024 172.989 31.6642V27.6413Z" fill="#404040"/>
<path d="M182.463 0.389404H188.043V31.794C188.043 32.8321 188.173 33.6108 188.562 34.0001C188.952 34.3894 189.73 34.6489 190.768 34.7787V40.0993C189.471 40.0993 188.303 39.9696 187.265 39.8398C186.226 39.5802 185.318 39.1909 184.669 38.6718C183.89 38.1528 183.371 37.3741 182.982 36.336C182.593 35.2978 182.463 34.0001 182.463 32.3131V0.389404Z" fill="#404040"/>
<path d="M201.021 39.71V0.389404H210.105C216.723 0.389404 220.098 4.28253 220.098 11.939C220.098 14.2749 219.708 16.2215 219.059 17.9085C218.281 19.4657 217.113 20.8932 215.296 21.8016L221.395 39.71H215.426L210.235 22.9696H206.86V39.71H201.021ZM206.731 5.58024V17.9085H209.975C211.013 17.9085 211.792 17.7787 212.311 17.5192C212.83 17.2596 213.349 16.8703 213.739 16.3512C213.998 15.8322 214.258 15.1833 214.387 14.4047C214.517 13.626 214.517 12.7176 214.517 11.8093C214.517 10.9009 214.517 9.99246 214.387 9.21383C214.258 8.4352 213.998 7.78635 213.739 7.26727C213.09 6.2291 211.662 5.71001 209.716 5.71001H206.731V5.58024Z" fill="#404040"/>
<path d="M241.121 11.6794V39.71H235.541V36.9848H235.411C234.762 37.8932 234.113 38.542 233.335 39.1909C232.556 39.71 231.388 40.0993 230.22 40.0993C229.571 40.0993 228.792 39.9695 228.144 39.71C227.495 39.4504 226.846 39.0611 226.327 38.542C225.808 38.023 225.289 37.2443 225.029 36.4657C224.64 35.5573 224.51 34.5191 224.51 33.3512V11.6794H230.09V31.0153C230.09 32.0535 230.35 32.8321 230.869 33.481C231.388 34.1298 232.037 34.3894 232.945 34.3894C233.983 34.3894 234.762 34.0001 235.151 33.3512C235.541 32.7023 235.8 31.7939 235.8 30.4962V11.6794H241.121Z" fill="#404040"/>
<path d="M255.915 19.4657C255.915 18.5573 255.526 17.7787 255.007 17.2596C254.488 16.7405 253.839 16.481 253.06 16.481C252.152 16.481 251.503 16.7405 250.984 17.3894C250.465 17.9085 250.205 18.5573 250.205 19.336C250.205 19.855 250.335 20.3741 250.595 20.8932C250.854 21.4123 251.503 21.8016 252.541 22.1909L255.915 23.4886C257.992 24.2673 259.419 25.4352 260.198 26.8627C260.977 28.2902 261.366 29.8474 261.366 31.4047C261.366 32.5726 261.106 33.7405 260.717 34.6489C260.328 35.6871 259.679 36.5955 259.03 37.3741C258.251 38.1527 257.473 38.8016 256.434 39.1909C255.396 39.5802 254.228 39.8398 253.06 39.8398C250.724 39.8398 248.908 39.0611 247.35 37.6337C246.572 36.9848 245.923 36.0764 245.533 35.0382C245.144 34.0001 244.755 32.7024 244.755 31.4047H250.076C250.205 32.1833 250.465 32.8321 250.854 33.6108C251.243 34.2596 252.022 34.6489 253.06 34.6489C253.839 34.6489 254.618 34.3894 255.266 33.8703C255.915 33.3512 256.175 32.5726 256.175 31.6642C256.175 30.8856 255.915 30.2367 255.526 29.7176C255.137 29.1985 254.358 28.6795 253.32 28.2901L250.595 27.252C248.778 26.6031 247.48 25.565 246.442 24.2673C245.404 22.9695 244.885 21.4123 244.885 19.4657C244.885 18.2978 245.144 17.1298 245.533 16.2214C245.923 15.1833 246.572 14.2749 247.35 13.626C248.129 12.8474 248.908 12.3283 249.946 11.939C250.984 11.5497 252.022 11.4199 253.19 11.4199C254.358 11.4199 255.396 11.6795 256.305 12.0688C257.343 12.4581 258.122 13.1069 258.77 13.7558C259.419 14.5344 260.068 15.3131 260.457 16.3512C260.847 17.3894 261.106 18.4276 261.106 19.5955H255.915V19.4657Z" fill="#404040"/>
<path d="M265.259 39.71V0.389404H270.839V14.4047H270.969C271.618 13.4963 272.267 12.8474 273.046 12.1986C273.824 11.6795 274.992 11.2902 276.16 11.2902C276.809 11.2902 277.588 11.4199 278.236 11.6795C278.885 11.939 279.534 12.3283 280.053 12.8474C280.572 13.3665 281.092 14.1451 281.351 14.9238C281.74 15.8322 281.87 16.8703 281.87 18.0383V39.5802H276.42V20.2444C276.42 19.2062 276.16 18.4276 275.641 17.7787C275.122 17.1299 274.473 16.8703 273.565 16.8703C272.526 16.8703 271.748 17.2596 271.358 17.9085C270.969 18.5573 270.71 19.4657 270.71 20.7634V39.5802H265.259V39.71Z" fill="#404040"/>
<path d="M0 23.6185L5.5803 20.8933V11.8093H0V23.6185Z" fill="#404040"/>
<path d="M10.1224 46.8475H15.8325V22.3208L10.1224 25.1758V46.8475Z" fill="#404040"/>
<path d="M10.1224 18.5574L15.8325 15.8322V10.3818H10.1224V18.5574Z" fill="#404040"/>
<path d="M20.2449 13.4963L25.955 17.649V0.129883H20.2449V13.4963Z" fill="#404040"/>
<path d="M20.2449 37.3741H25.955V24.9161L20.2449 20.7634V37.3741Z" fill="#404040"/>
<path d="M30.4971 51.0001H36.0774V32.1833L30.4971 28.1604V51.0001Z" fill="#404040"/>
<path d="M30.4971 20.8931L36.0774 25.0458V9.08398H30.4971V20.8931Z" fill="#404040"/>
<path d="M40.6194 35.0383H46.1997V26.4734L40.6194 29.8474V35.0383Z" fill="#404040"/>
<path d="M40.6194 22.9696L46.1997 19.7253V3.24438H40.6194V22.9696Z" fill="#404040"/>
<path d="M50.8716 35.0383H56.4519V20.5039L50.8716 23.7482V35.0383Z" fill="#404040"/>
<path d="M57.3603 4.02295L50.8716 15.313H53.7266H59.4367H63.849L57.3603 4.02295Z" fill="#404040"/>
</g>
<defs>
<clipPath id="clip0_15_9400">
<rect width="282" height="51" fill="white"/>
</clipPath>
</defs>
</svg>
