<svg width="240" height="220" viewBox="0 0 240 220" fill="none" xmlns="http://www.w3.org/2000/svg">
<g clip-path="url(#clip0_15_548)">
<path d="M78.2305 136.254L55.7695 130.883L63.875 58.8125H143.758V81.5664H87.0195L83.5039 113.109C85.3919 112.003 88.2565 110.831 92.0977 109.594C95.9388 108.292 100.236 107.641 104.988 107.641C111.889 107.641 118.009 108.715 123.348 110.863C128.686 113.012 133.211 116.137 136.922 120.238C140.698 124.34 143.562 129.353 145.516 135.277C147.469 141.202 148.445 147.908 148.445 155.395C148.445 161.71 147.469 167.732 145.516 173.461C143.562 179.125 140.6 184.203 136.629 188.695C132.658 193.122 127.677 196.605 121.688 199.145C115.698 201.684 108.602 202.953 100.398 202.953C94.2786 202.953 88.3542 202.042 82.625 200.219C76.9609 198.396 71.8503 195.694 67.293 192.113C62.8008 188.533 59.1875 184.203 56.4531 179.125C53.7839 173.982 52.3841 168.122 52.2539 161.547H80.1836C80.5742 165.583 81.6159 169.066 83.3086 171.996C85.0664 174.861 87.3776 177.074 90.2422 178.637C93.1068 180.199 96.4596 180.98 100.301 180.98C103.882 180.98 106.941 180.297 109.48 178.93C112.02 177.562 114.07 175.674 115.633 173.266C117.195 170.792 118.335 167.927 119.051 164.672C119.832 161.352 120.223 157.771 120.223 153.93C120.223 150.089 119.767 146.605 118.855 143.48C117.944 140.355 116.544 137.654 114.656 135.375C112.768 133.096 110.359 131.339 107.43 130.102C104.565 128.865 101.212 128.246 97.3711 128.246C92.1628 128.246 88.1263 129.06 85.2617 130.688C82.4622 132.315 80.1185 134.171 78.2305 136.254Z" fill="#E0F0F3"/>
<path d="M206.562 136.938V133.812C209.147 133.812 211.25 131.709 211.25 129.125C211.25 126.541 209.147 124.438 206.562 124.438H203.438C202.575 124.438 201.875 123.738 201.875 122.875C201.875 122.012 202.575 121.312 203.438 121.312H208.125V122.875H211.25V118.188H206.562V115.062H203.438V118.188C200.853 118.188 198.75 120.291 198.75 122.875C198.75 125.459 200.853 127.562 203.438 127.562H206.562C207.425 127.562 208.125 128.262 208.125 129.125C208.125 129.988 207.425 130.688 206.562 130.688H201.875V129.125H198.75V133.812H203.438V136.938H206.562Z" fill="#404040"/>
<path d="M222.188 126C222.188 116.523 214.477 108.812 205 108.812C195.523 108.812 187.812 116.523 187.812 126C187.812 135.477 195.523 143.188 205 143.188C214.477 143.188 222.188 135.477 222.188 126ZM190.938 126C190.938 118.245 197.245 111.938 205 111.938C212.755 111.938 219.062 118.245 219.062 126C219.062 133.755 212.755 140.062 205 140.062C197.245 140.062 190.938 133.755 190.938 126Z" fill="#404040"/>
<path d="M228.438 126C228.438 113.077 217.923 102.562 205 102.562C192.077 102.562 181.562 113.077 181.562 126C181.562 135.95 187.805 144.45 196.572 147.844L193.416 151H180.853L169.916 163.5H151.192L131.978 184.314L134.273 186.434L152.559 166.625H171.336L182.273 154.125H194.711L199.959 148.877C201.391 149.192 202.87 149.367 204.386 149.406L196.541 157.25H182.344L172.969 169.75H154.291L131.562 195.725V199.438H222.188V141.881C226.053 137.7 228.438 132.13 228.438 126ZM184.688 126C184.688 114.8 193.8 105.688 205 105.688C216.2 105.688 225.312 114.8 225.312 126C225.312 137.2 216.2 146.312 205 146.312C193.8 146.312 184.688 137.2 184.688 126ZM209.688 148.966V196.312H203.438V154.772L209.164 149.045C209.338 149.014 209.516 149 209.688 148.966ZM197.834 160.375L200.312 157.897V196.312H194.062V160.375H197.834ZM153.438 196.312H147.188V182.614L153.438 175.472V196.312ZM156.562 172.875H162.812V196.312H156.562V172.875ZM165.938 172.875H172.188V196.312H165.938V172.875ZM175.312 171.833L181.562 163.5V196.312H175.312V171.833ZM184.688 160.375H190.938V196.312H184.688V160.375ZM144.062 186.186V196.312H135.202L144.062 186.186ZM212.812 196.312V148.07C215.077 147.266 217.178 146.127 219.062 144.706V196.312H212.812Z" fill="#404040"/>
<path d="M140.938 160.375H144.062V154.125H147.188V135.375H144.062V129.125H140.938V135.375H137.812V154.125H140.938V160.375ZM140.938 138.5H144.062V151H140.938V138.5Z" fill="#404040"/>
<path d="M153.438 152.562H156.562V146.312H159.688V130.688H156.562V124.438H153.438V130.688H150.312V146.312H153.438V152.562ZM153.438 133.812H156.562V143.188H153.438V133.812Z" fill="#404040"/>
<path d="M165.938 141.625H169.062V135.375H172.188V122.875H169.062V116.625H165.938V122.875H162.812V135.375H165.938V141.625ZM165.938 126H169.062V132.25H165.938V126Z" fill="#404040"/>
</g>
<defs>
<clipPath id="clip0_15_548">
<rect width="240" height="220" fill="white"/>
</clipPath>
</defs>
</svg>
