<svg width="240" height="220" viewBox="0 0 240 220" fill="none" xmlns="http://www.w3.org/2000/svg">
<g clip-path="url(#clip0_15_643)">
<path d="M109.32 41.5195V184H81.1953V73.9414L47.4062 84.6836V62.5156L106.293 41.5195H109.32Z" fill="#E0F0F3"/>
<path d="M184.5 126.125V88.625H150.125V126.125H184.5ZM167.312 107.375C165.417 107.375 163.875 105.693 163.875 103.625C163.875 101.557 165.417 99.875 167.312 99.875C169.208 99.875 170.75 101.557 170.75 103.625C170.75 105.693 169.208 107.375 167.312 107.375ZM162.706 112.353C163.811 111.551 165.097 111.125 166.424 111.125H168.199C169.526 111.125 170.814 111.551 171.917 112.353C173.452 113.469 174.505 115.248 174.81 117.234L175.597 122.375H159.028L159.814 117.234C160.118 115.248 161.173 113.469 162.706 112.353ZM153.562 92.375H181.062V122.375H179.081L178.201 116.617C177.742 113.613 176.147 110.922 173.825 109.233C173.412 108.933 172.983 108.669 172.539 108.44C173.553 107.133 174.188 105.466 174.188 103.625C174.188 99.4887 171.104 96.125 167.312 96.125C163.521 96.125 160.438 99.4887 160.438 103.625C160.438 105.466 161.072 107.133 162.086 108.44C161.642 108.669 161.213 108.933 160.8 109.233C158.478 110.922 156.883 113.613 156.424 116.617L155.544 122.375H153.562V92.375Z" fill="#404040"/>
<path d="M126.062 99.875H146.688V103.625H126.062V99.875Z" fill="#404040"/>
<path d="M126.062 107.375H146.688V111.125H126.062V107.375Z" fill="#404040"/>
<path d="M126.062 114.875H146.688V118.625H126.062V114.875Z" fill="#404040"/>
<path d="M126.062 122.375H146.688V126.125H126.062V122.375Z" fill="#404040"/>
<path d="M126.062 129.875H184.5V133.625H126.062V129.875Z" fill="#404040"/>
<path d="M160.438 178.625H184.5V163.625H160.438V178.625ZM163.875 167.375H181.062V174.875H163.875V167.375Z" fill="#404040"/>
<path d="M143.25 174.875H157V178.625H143.25V174.875Z" fill="#404040"/>
<path d="M143.25 167.375H157V171.125H143.25V167.375Z" fill="#404040"/>
<path d="M210.243 166.91L200.318 74.9975C199.989 71.8138 197.25 69.4775 194.336 69.9275L146.662 77.1013C146.528 73.0963 143.518 69.875 139.812 69.875H136.375C132.583 69.875 129.5 73.2388 129.5 77.375V81.125H122.625C120.729 81.125 119.188 82.8069 119.188 84.875V155.349L106.355 169.346C104.655 171.204 103.719 173.671 103.719 176.294C103.719 181.715 107.761 186.125 112.728 186.125C115.136 186.125 117.4 185.103 119.1 183.245L119.253 183.078C119.557 184.811 120.951 186.125 122.625 186.125H187.938C189.833 186.125 191.375 184.443 191.375 182.375V176.441L205.709 173.598C208.36 173.073 210.281 170.559 210.281 167.623C210.281 167.381 210.268 167.141 210.243 166.91ZM132.938 77.375C132.938 75.3069 134.479 73.625 136.375 73.625H139.812C141.708 73.625 143.25 75.3069 143.25 77.375V81.125H139.812V77.375H136.375V81.125H132.938V77.375ZM132.938 84.875H136.375V90.5C136.375 91.5331 135.605 92.375 134.656 92.375C133.708 92.375 132.938 91.5331 132.938 90.5V84.875ZM142.929 145.623L140.845 143.351L143.97 142.214L142.929 145.623ZM137.2 144.676L141.713 149.6L140.78 152.654L134.4 145.694L137.2 144.676ZM131.219 147.526L139.101 156.125L120.906 175.974L113.024 167.375L131.219 147.526ZM112.728 182.375C109.655 182.375 107.156 179.647 107.156 176.294C107.156 174.671 107.735 173.144 108.787 171.995L110.594 170.026L118.476 178.625L116.67 180.596C115.618 181.743 114.219 182.375 112.728 182.375ZM187.938 182.375H122.625V179.401L143.033 157.138L147.927 141.125H184.5V137.375H146.409L130.291 143.236L122.625 151.599V84.875H129.5V90.5C129.5 93.6013 131.813 96.125 134.656 96.125C137.499 96.125 139.812 93.6013 139.812 90.5V84.875H143.25V92.375H146.688V84.875H187.938V182.375ZM205.094 169.908L191.375 172.629V84.875C191.375 82.8069 189.833 81.125 187.938 81.125H146.688V80.885L194.806 73.6438C195.844 73.5013 196.786 74.3075 196.902 75.4306L206.83 167.36C206.84 167.448 206.844 167.534 206.844 167.621C206.844 168.744 206.108 169.706 205.094 169.908Z" fill="#404040"/>
</g>
<defs>
<clipPath id="clip0_15_643">
<rect width="240" height="220" fill="white"/>
</clipPath>
</defs>
</svg>
