<svg width="240" height="220" viewBox="0 0 240 220" fill="none" xmlns="http://www.w3.org/2000/svg">
<g clip-path="url(#clip0_15_533)">
<path d="M127.324 57.3477H131.426V79.8086H129.766C122.344 79.8086 115.736 80.9154 109.941 83.1289C104.147 85.3424 99.2318 88.5 95.1953 92.6016C91.224 96.638 88.1641 101.521 86.0156 107.25C83.9323 112.979 82.8906 119.392 82.8906 126.488V150.121C82.8906 155.199 83.3789 159.691 84.3555 163.598C85.3971 167.439 86.862 170.661 88.75 173.266C90.7031 175.805 92.9818 177.725 95.5859 179.027C98.1901 180.264 101.12 180.883 104.375 180.883C107.435 180.883 110.202 180.232 112.676 178.93C115.215 177.628 117.363 175.805 119.121 173.461C120.944 171.052 122.311 168.253 123.223 165.062C124.199 161.807 124.688 158.259 124.688 154.418C124.688 150.577 124.199 147.029 123.223 143.773C122.311 140.518 120.944 137.719 119.121 135.375C117.298 132.966 115.085 131.111 112.48 129.809C109.876 128.507 106.947 127.855 103.691 127.855C99.2643 127.855 95.3581 128.897 91.9727 130.98C88.6523 132.999 86.0482 135.603 84.1602 138.793C82.2721 141.983 81.263 145.336 81.1328 148.852L72.6367 143.383C72.832 138.37 73.8737 133.617 75.7617 129.125C77.7148 124.633 80.3841 120.661 83.7695 117.211C87.2201 113.695 91.3542 110.961 96.1719 109.008C100.99 106.99 106.426 105.98 112.48 105.98C119.121 105.98 124.948 107.25 129.961 109.789C135.039 112.328 139.271 115.811 142.656 120.238C146.042 124.665 148.581 129.776 150.273 135.57C151.966 141.365 152.812 147.549 152.812 154.125C152.812 161.026 151.673 167.439 149.395 173.363C147.181 179.288 143.958 184.464 139.727 188.891C135.56 193.318 130.547 196.768 124.688 199.242C118.828 201.716 112.253 202.953 104.961 202.953C97.4089 202.953 90.5404 201.586 84.3555 198.852C78.2357 196.052 72.9622 192.146 68.5352 187.133C64.1081 182.12 60.6901 176.163 58.2812 169.262C55.9375 162.361 54.7656 154.809 54.7656 146.605V135.668C54.7656 124.21 56.4258 113.728 59.7461 104.223C63.1315 94.6523 67.9818 86.3841 74.2969 79.418C80.612 72.3867 88.2292 66.9505 97.1484 63.1094C106.068 59.2682 116.126 57.3477 127.324 57.3477Z" fill="#E0F0F3"/>
<path d="M225.312 161.25H147.188C146.773 161.25 146.376 161.415 146.083 161.708C145.79 162.001 145.625 162.398 145.625 162.812V178.438H134.688C134.273 178.438 133.876 178.602 133.583 178.895C133.29 179.188 133.125 179.586 133.125 180V200.312C133.125 200.727 133.29 201.124 133.583 201.417C133.876 201.71 134.273 201.875 134.688 201.875H147.188C147.602 201.875 147.999 201.71 148.292 201.417C148.585 201.124 148.75 200.727 148.75 200.312V198.75H181.371C182.783 198.749 184.173 198.395 185.414 197.719L200.711 189.375H225.312C225.727 189.375 226.124 189.21 226.417 188.917C226.71 188.624 226.875 188.227 226.875 187.812V162.812C226.875 162.398 226.71 162.001 226.417 161.708C226.124 161.415 225.727 161.25 225.312 161.25ZM145.625 198.75H136.25V181.562H145.625V198.75ZM193.624 164.375L192.843 167.5H182.782L182.001 164.375H193.624ZM183.474 176.875H193.624L192.843 180H182.782L182.355 178.292L182.427 178.221C182.83 177.817 183.182 177.365 183.474 176.875ZM148.75 164.375H178.78L179.368 166.727C178.339 166.446 177.258 166.408 176.212 166.616C175.165 166.823 174.182 167.271 173.338 167.925L165.848 173.75H148.75V164.375ZM148.75 176.875H155.431C154.419 177.593 153.578 178.526 152.967 179.606C152.357 180.686 151.992 181.888 151.898 183.125H148.75V176.875ZM183.917 194.976C183.136 195.401 182.26 195.624 181.371 195.625H148.75V186.25H152.505C153.167 186.249 153.801 185.986 154.268 185.518C154.736 185.051 154.999 184.417 155 183.755C155.002 182.345 155.562 180.994 156.559 179.997C157.556 179 158.908 178.439 160.318 178.438H164.159C164.646 178.437 165.12 178.274 165.505 177.976L175.256 170.391C176.011 169.803 176.96 169.526 177.912 169.615C178.864 169.704 179.746 170.152 180.378 170.868C181.011 171.585 181.346 172.516 181.317 173.471C181.287 174.426 180.894 175.334 180.217 176.01L170.596 185.631C170.289 185.938 170.08 186.329 169.996 186.754C169.911 187.179 169.954 187.62 170.12 188.021C170.286 188.422 170.567 188.765 170.928 189.005C171.289 189.246 171.713 189.375 172.146 189.375H194.185L183.917 194.976ZM223.75 186.25H174.397L179.779 180.869L180.047 181.941C180.131 182.279 180.326 182.58 180.601 182.794C180.876 183.008 181.214 183.125 181.562 183.125H194.062C194.411 183.125 194.749 183.008 195.024 182.794C195.299 182.58 195.494 182.279 195.578 181.941L196.845 176.875H223.75V186.25ZM223.75 173.75H184.434C184.495 172.679 184.305 171.609 183.878 170.625H194.062C194.411 170.625 194.749 170.508 195.024 170.294C195.299 170.08 195.494 169.779 195.578 169.441L196.845 164.375H223.75V173.75Z" fill="#404040"/>
<path d="M169.063 133.125C168.135 133.125 167.229 133.4 166.458 133.915C165.687 134.43 165.087 135.162 164.732 136.019C164.377 136.875 164.284 137.818 164.465 138.727C164.646 139.636 165.092 140.472 165.748 141.127C166.403 141.783 167.239 142.229 168.148 142.41C169.057 142.591 170 142.498 170.856 142.143C171.713 141.788 172.445 141.188 172.96 140.417C173.475 139.646 173.75 138.74 173.75 137.812C173.749 136.57 173.254 135.378 172.376 134.499C171.497 133.621 170.305 133.126 169.063 133.125ZM169.063 139.375C168.753 139.375 168.451 139.283 168.194 139.112C167.937 138.94 167.737 138.696 167.619 138.41C167.501 138.125 167.47 137.811 167.53 137.508C167.59 137.205 167.739 136.926 167.958 136.708C168.176 136.489 168.455 136.34 168.758 136.28C169.061 136.22 169.375 136.251 169.66 136.369C169.946 136.487 170.19 136.687 170.362 136.944C170.533 137.201 170.625 137.503 170.625 137.812C170.625 138.227 170.46 138.624 170.167 138.917C169.874 139.21 169.477 139.375 169.063 139.375Z" fill="#404040"/>
<path d="M225.312 108.125H212.812C212.398 108.125 212.001 108.29 211.708 108.583C211.415 108.876 211.25 109.273 211.25 109.688V111.25H178.629C177.217 111.251 175.827 111.605 174.586 112.281L159.289 120.625H139.375C138.961 120.625 138.563 120.79 138.27 121.083C137.977 121.376 137.812 121.773 137.812 122.188V153.438C137.812 153.852 137.977 154.249 138.27 154.542C138.563 154.835 138.961 155 139.375 155H198.75C199.164 155 199.562 154.835 199.855 154.542C200.148 154.249 200.312 153.852 200.312 153.438V134.662C202.327 134.509 204.22 133.639 205.649 132.211C207.078 130.782 207.948 128.89 208.102 126.875H211.25V130C211.25 130.414 211.415 130.812 211.708 131.105C212.001 131.398 212.398 131.562 212.812 131.562H225.312C225.727 131.562 226.124 131.398 226.417 131.105C226.71 130.812 226.875 130.414 226.875 130V109.688C226.875 109.273 226.71 108.876 226.417 108.583C226.124 108.29 225.727 108.125 225.312 108.125ZM197.188 151.875H140.938V123.75H185.603L182.478 126.875H148.75C148.336 126.875 147.938 127.04 147.645 127.333C147.352 127.626 147.188 128.023 147.188 128.438V130H145.625C145.211 130 144.813 130.165 144.52 130.458C144.227 130.751 144.062 131.148 144.062 131.562V144.062C144.062 144.477 144.227 144.874 144.52 145.167C144.813 145.46 145.211 145.625 145.625 145.625H147.188V147.188C147.188 147.602 147.352 147.999 147.645 148.292C147.938 148.585 148.336 148.75 148.75 148.75H189.375C189.789 148.75 190.187 148.585 190.48 148.292C190.773 147.999 190.938 147.602 190.938 147.188V145.625H192.5C192.914 145.625 193.312 145.46 193.605 145.167C193.898 144.874 194.062 144.477 194.062 144.062V136.32L196.161 134.688H197.188V151.875ZM177.066 140.943C178.199 142.349 179.839 143.255 181.633 143.467C183.427 143.679 185.232 143.179 186.662 142.076L190.938 138.75V142.5H189.375C188.961 142.5 188.563 142.665 188.27 142.958C187.977 143.251 187.812 143.648 187.812 144.062V145.625H150.312V144.062C150.312 143.648 150.148 143.251 149.855 142.958C149.562 142.665 149.164 142.5 148.75 142.5H147.188V133.125H148.75C149.164 133.125 149.562 132.96 149.855 132.667C150.148 132.374 150.312 131.977 150.312 131.562V130H179.353L177.573 131.779C176.375 132.976 175.66 134.573 175.566 136.264C175.472 137.955 176.006 139.621 177.066 140.943ZM211.25 123.75H207.495C206.833 123.751 206.199 124.014 205.732 124.482C205.264 124.949 205.001 125.583 205 126.245C204.998 127.655 204.438 129.006 203.441 130.003C202.444 131 201.092 131.561 199.682 131.562H195.841C195.354 131.563 194.88 131.726 194.495 132.024L184.744 139.609C183.989 140.197 183.04 140.474 182.088 140.385C181.136 140.296 180.254 139.848 179.622 139.132C178.989 138.415 178.654 137.484 178.683 136.529C178.713 135.574 179.106 134.666 179.783 133.99L189.404 124.369C189.711 124.062 189.92 123.671 190.004 123.246C190.089 122.821 190.046 122.38 189.88 121.979C189.714 121.578 189.433 121.235 189.072 120.995C188.711 120.754 188.287 120.625 187.854 120.625H165.815L176.083 115.024C176.864 114.599 177.74 114.376 178.629 114.375H211.25V123.75ZM223.75 128.438H214.375V111.25H223.75V128.438Z" fill="#404040"/>
</g>
<defs>
<clipPath id="clip0_15_533">
<rect width="240" height="220" fill="white"/>
</clipPath>
</defs>
</svg>
