<svg width="240" height="220" viewBox="0 0 240 220" fill="none" xmlns="http://www.w3.org/2000/svg">
<g clip-path="url(#clip0_15_587)">
<path d="M88.5742 100.699H103.613C108.431 100.699 112.402 99.8854 115.527 98.2578C118.652 96.5651 120.964 94.2214 122.461 91.2266C124.023 88.1667 124.805 84.6185 124.805 80.582C124.805 76.9362 124.089 73.7135 122.656 70.9141C121.289 68.0495 119.173 65.8359 116.309 64.2734C113.444 62.6458 109.831 61.832 105.469 61.832C102.018 61.832 98.8281 62.5156 95.8984 63.8828C92.9688 65.25 90.625 67.1706 88.8672 69.6445C87.1094 72.1185 86.2305 75.1133 86.2305 78.6289H58.0078C58.0078 70.8164 60.0911 64.013 64.2578 58.2188C68.4896 52.4245 74.1536 47.8997 81.25 44.6445C88.3464 41.3893 96.1589 39.7617 104.688 39.7617C114.323 39.7617 122.754 41.3242 129.98 44.4492C137.207 47.5091 142.839 52.0339 146.875 58.0234C150.911 64.013 152.93 71.4349 152.93 80.2891C152.93 84.7812 151.888 89.1432 149.805 93.375C147.721 97.5417 144.727 101.318 140.82 104.703C136.979 108.023 132.292 110.693 126.758 112.711C121.224 114.664 115.007 115.641 108.105 115.641H88.5742V100.699ZM88.5742 122.086V107.535H108.105C115.853 107.535 122.656 108.414 128.516 110.172C134.375 111.93 139.29 114.469 143.262 117.789C147.233 121.044 150.228 124.918 152.246 129.41C154.264 133.837 155.273 138.753 155.273 144.156C155.273 150.797 154.004 156.721 151.465 161.93C148.926 167.073 145.345 171.435 140.723 175.016C136.165 178.596 130.827 181.331 124.707 183.219C118.587 185.042 111.914 185.953 104.688 185.953C98.6979 185.953 92.806 185.139 87.0117 183.512C81.2826 181.819 76.0742 179.312 71.3867 175.992C66.7643 172.607 63.0534 168.375 60.2539 163.297C57.5195 158.154 56.1523 152.066 56.1523 145.035H84.375C84.375 148.681 85.2865 151.936 87.1094 154.801C88.9323 157.665 91.4388 159.911 94.6289 161.539C97.8841 163.167 101.497 163.98 105.469 163.98C109.961 163.98 113.802 163.167 116.992 161.539C120.247 159.846 122.721 157.503 124.414 154.508C126.172 151.448 127.051 147.9 127.051 143.863C127.051 138.655 126.107 134.488 124.219 131.363C122.331 128.173 119.629 125.829 116.113 124.332C112.598 122.835 108.431 122.086 103.613 122.086H88.5742Z" fill="#E0F0F3"/>
<g clip-path="url(#clip1_15_587)">
<path d="M151.8 184H191C193.598 183.997 196.089 182.837 197.927 180.775C199.764 178.713 200.797 175.916 200.8 173C200.8 172.514 200.628 172.047 200.322 171.704C200.015 171.36 199.6 171.167 199.167 171.167C198.733 171.167 198.318 171.36 198.012 171.704C197.705 172.047 197.533 172.514 197.533 173C197.533 174.945 196.845 176.81 195.62 178.185C194.395 179.561 192.733 180.333 191 180.333H151.8C150.067 180.333 148.405 179.561 147.18 178.185C145.955 176.81 145.267 174.945 145.267 173V85C145.267 83.0551 145.955 81.1898 147.18 79.8146C148.405 78.4393 150.067 77.6667 151.8 77.6667H152.424L155.97 85.627C156.374 86.5427 156.999 87.3128 157.774 87.8501C158.548 88.3873 159.442 88.6702 160.352 88.6667H182.448C183.358 88.6702 184.252 88.3873 185.026 87.8501C185.801 87.3128 186.426 86.5427 186.83 85.627L190.376 77.6667H191C192.733 77.6667 194.395 78.4393 195.62 79.8146C196.845 81.1898 197.533 83.0551 197.533 85V88.6667C197.533 89.1529 197.705 89.6192 198.012 89.963C198.318 90.3068 198.733 90.5 199.167 90.5C199.6 90.5 200.015 90.3068 200.322 89.963C200.628 89.6192 200.8 89.1529 200.8 88.6667V85C200.797 82.0835 199.764 79.2873 197.927 77.225C196.089 75.1628 193.598 74.0029 191 74H151.8C149.202 74.0029 146.711 75.1628 144.873 77.225C143.036 79.2873 142.003 82.0835 142 85V173C142.003 175.916 143.036 178.713 144.873 180.775C146.711 182.837 149.202 183.997 151.8 184ZM183.908 83.9862C183.773 84.2915 183.565 84.5483 183.307 84.7275C183.049 84.9067 182.751 85.0011 182.448 85H160.352C160.049 85.0011 159.751 84.9067 159.493 84.7275C159.235 84.5483 159.027 84.2915 158.892 83.9862L156.076 77.6667H186.724L183.908 83.9862Z" fill="#404040"/>
<path d="M184.467 176.667C184.9 176.667 185.315 176.474 185.622 176.13C185.928 175.786 186.1 175.32 186.1 174.833C186.1 174.347 185.928 173.881 185.622 173.537C185.315 173.193 184.9 173 184.467 173H158.333C157.9 173 157.485 173.193 157.178 173.537C156.872 173.881 156.7 174.347 156.7 174.833C156.7 175.32 156.872 175.786 157.178 176.13C157.485 176.474 157.9 176.667 158.333 176.667H184.467Z" fill="#404040"/>
<path d="M223.608 135.028C222.362 133.692 220.705 132.947 218.982 132.947C217.259 132.947 215.603 133.692 214.357 135.028L211.119 138.662C211.054 138.742 210.965 138.794 210.869 138.809C210.773 138.824 210.675 138.801 210.592 138.744C206.608 135.55 203.122 131.638 200.276 127.167C200.228 127.076 200.209 126.97 200.222 126.866C200.235 126.761 200.28 126.665 200.348 126.593L203.593 122.95C204.817 121.572 205.505 119.705 205.505 117.758C205.505 115.812 204.817 113.944 203.593 112.566L198.915 107.312C197.669 105.977 196.014 105.233 194.292 105.233C192.57 105.233 190.914 105.977 189.669 107.312C185.193 112.335 183.462 120.189 185.027 128.329C186.082 133.778 188.73 138.763 193.383 144.044C194.853 145.634 194.569 145.346 195.58 146.51C200.259 151.706 204.702 154.678 209.563 155.86C216.259 157.472 223.479 156.044 228.281 150.648C228.889 149.967 229.372 149.158 229.701 148.267C230.031 147.376 230.2 146.421 230.2 145.456C230.2 144.491 230.031 143.536 229.701 142.645C229.372 141.754 228.889 140.945 228.281 140.264L223.608 135.028ZM225.975 148.067C224.487 149.673 222.725 150.924 220.794 151.743C218.863 152.563 216.804 152.934 214.742 152.833C207.882 152.833 202.74 149.308 197.899 143.934C196.233 142.004 196.308 142.134 195.681 141.447C192.046 137.728 189.455 132.902 188.223 127.557C186.891 120.644 188.295 114.047 191.98 109.91C192.284 109.567 192.644 109.296 193.042 109.11C193.439 108.925 193.865 108.83 194.295 108.83C194.726 108.83 195.152 108.925 195.549 109.11C195.946 109.296 196.307 109.567 196.61 109.91L201.29 115.155C201.595 115.495 201.837 115.901 202.003 116.347C202.168 116.793 202.253 117.271 202.253 117.754C202.253 118.238 202.168 118.716 202.003 119.162C201.837 119.608 201.595 120.013 201.29 120.354L198.023 124.006C197.404 124.694 197.023 125.607 196.95 126.582C196.878 127.557 197.117 128.529 197.626 129.323C200.676 134.107 204.406 138.295 208.668 141.72C209.377 142.294 210.245 142.564 211.116 142.482C211.987 142.399 212.803 141.97 213.416 141.271L216.666 137.617C217.281 136.928 218.114 136.541 218.982 136.541C219.851 136.541 220.684 136.928 221.298 137.617L225.971 142.862C226.277 143.202 226.521 143.608 226.686 144.054C226.852 144.501 226.938 144.98 226.938 145.464C226.939 145.947 226.854 146.426 226.688 146.873C226.523 147.32 226.28 147.726 225.975 148.067Z" fill="#404040"/>
<path d="M230.2 94.1666H184.467C181.868 94.1695 179.377 95.3294 177.54 97.3917C175.703 99.4539 174.669 102.25 174.667 105.167V116.9L156.785 127.605C156.265 127.918 155.83 128.384 155.527 128.953C155.224 129.522 155.064 130.172 155.064 130.835C155.064 131.498 155.224 132.148 155.527 132.717C155.83 133.286 156.265 133.752 156.785 134.065L174.667 144.767V156.5C174.669 159.416 175.703 162.213 177.54 164.275C179.377 166.337 181.868 167.497 184.467 167.5H230.2C232.798 167.497 235.289 166.337 237.127 164.275C238.964 162.213 239.997 159.416 240 156.5V105.167C239.997 102.25 238.964 99.4539 237.127 97.3917C235.289 95.3294 232.798 94.1695 230.2 94.1666ZM236.733 156.5C236.733 158.445 236.045 160.31 234.82 161.685C233.595 163.061 231.933 163.833 230.2 163.833H184.467C182.734 163.833 181.072 163.061 179.847 161.685C178.622 160.31 177.933 158.445 177.933 156.5V143.667C177.933 143.335 177.853 143.009 177.701 142.724C177.549 142.439 177.33 142.206 177.069 142.05L158.333 130.833L177.074 119.613C177.334 119.456 177.551 119.224 177.702 118.94C177.853 118.656 177.933 118.331 177.933 118V105.167C177.933 103.222 178.622 101.356 179.847 99.9812C181.072 98.6059 182.734 97.8333 184.467 97.8333H230.2C231.933 97.8333 233.595 98.6059 234.82 99.9812C236.045 101.356 236.733 103.222 236.733 105.167V156.5Z" fill="#404040"/>
</g>
</g>
<defs>
<clipPath id="clip0_15_587">
<rect width="240" height="220" fill="white"/>
</clipPath>
<clipPath id="clip1_15_587">
<rect width="98" height="110" fill="white" transform="translate(142 74)"/>
</clipPath>
</defs>
</svg>
