<svg width="240" height="220" viewBox="0 0 240 220" fill="none" xmlns="http://www.w3.org/2000/svg">
<g clip-path="url(#clip0_15_611)">
<path d="M150.031 162.027V184H52.7656V165.25L98.7617 115.934C103.384 110.79 107.03 106.266 109.699 102.359C112.368 98.388 114.289 94.8398 115.461 91.7148C116.698 88.5247 117.316 85.4974 117.316 82.6328C117.316 78.3359 116.6 74.6576 115.168 71.5977C113.736 68.4727 111.62 66.0638 108.82 64.3711C106.086 62.6784 102.701 61.832 98.6641 61.832C94.3672 61.832 90.6562 62.8737 87.5312 64.957C84.4714 67.0404 82.1276 69.9375 80.5 73.6484C78.9375 77.3594 78.1562 81.5586 78.1562 86.2461H49.9336C49.9336 77.7826 51.9518 70.0352 55.9883 63.0039C60.0247 55.9076 65.7214 50.276 73.0781 46.1094C80.4349 41.8776 89.1589 39.7617 99.25 39.7617C109.211 39.7617 117.609 41.3893 124.445 44.6445C131.346 47.8346 136.555 52.457 140.07 58.5117C143.651 64.5013 145.441 71.6628 145.441 79.9961C145.441 84.6836 144.693 89.2734 143.195 93.7656C141.698 98.1927 139.549 102.62 136.75 107.047C134.016 111.409 130.695 115.836 126.789 120.328C122.883 124.82 118.553 129.475 113.801 134.293L89.0938 162.027H150.031Z" fill="#E0F0F3"/>
<g clip-path="url(#clip1_15_611)">
<path d="M220.688 179.125H217.25V163.656H222.406V160.219H217.25V156.781H225.844C226.184 156.781 226.516 156.68 226.798 156.491C227.081 156.303 227.301 156.034 227.431 155.72C227.561 155.406 227.595 155.061 227.529 154.727C227.463 154.394 227.299 154.088 227.059 153.847L216.746 143.535C216.424 143.212 215.987 143.031 215.531 143.031H136.469C136.013 143.031 135.576 143.212 135.254 143.535L124.941 153.847C124.701 154.088 124.537 154.394 124.471 154.727C124.405 155.061 124.439 155.406 124.569 155.72C124.699 156.034 124.919 156.303 125.202 156.491C125.484 156.68 125.816 156.781 126.156 156.781H133.031V179.125H124.438V182.562H220.688V179.125ZM213.812 179.125H193.188V163.656H213.812V179.125ZM155.375 151.625V179.125H151.938V152.337L157.094 147.18L166.191 156.278C166.513 156.6 166.95 156.781 167.406 156.781H181.156V160.219H174.281V163.656H181.156V179.125H158.812V151.625H155.375ZM146.781 156.781C147.237 156.781 147.674 156.6 147.996 156.278L148.5 155.774V179.125H143.344V156.781H146.781ZM189.75 156.781V160.219H184.594V156.781H189.75ZM184.594 163.656H189.75V179.125H184.594V163.656ZM213.812 160.219H193.188V156.781H213.812V160.219ZM214.82 146.469L221.695 153.344H168.118L161.243 146.469H214.82ZM137.18 146.469H152.945L146.07 153.344H130.305L137.18 146.469ZM136.469 156.781H139.906V179.125H136.469V156.781Z" fill="#404040"/>
<path d="M170.844 160.219H167.406V163.656H170.844V160.219Z" fill="#404040"/>
<path d="M227.562 179.125H224.125V182.562H227.562V179.125Z" fill="#404040"/>
<path d="M137.089 121.719C137.732 122.365 138.543 122.819 139.43 123.029C140.318 123.238 141.246 123.194 142.11 122.903L145.666 121.719C145.979 121.614 146.319 121.619 146.63 121.731C146.941 121.844 147.205 122.058 147.379 122.34C147.552 122.621 147.626 122.953 147.588 123.281C147.55 123.609 147.402 123.915 147.168 124.149L146.812 124.505C146.537 124.78 146.163 124.934 145.774 124.934C145.385 124.934 145.011 124.78 144.736 124.505L144.564 124.333L142.134 126.763L142.306 126.935C143.04 127.675 143.994 128.159 145.025 128.314C146.056 128.469 147.11 128.287 148.029 127.795L149.421 129.187L151.852 126.756L150.459 125.364C150.914 124.5 151.1 123.52 150.992 122.55C150.885 121.579 150.489 120.664 149.856 119.92C149.223 119.177 148.382 118.64 147.441 118.379C146.5 118.118 145.503 118.145 144.578 118.457L141.022 119.641C140.708 119.745 140.368 119.741 140.057 119.628C139.747 119.516 139.483 119.301 139.309 119.02C139.135 118.739 139.061 118.407 139.1 118.079C139.138 117.75 139.286 117.444 139.52 117.211L139.875 116.855C140.151 116.58 140.524 116.425 140.913 116.425C141.303 116.425 141.676 116.58 141.952 116.855L142.123 117.027L144.554 114.596L144.382 114.424C143.643 113.691 142.69 113.212 141.661 113.058C140.632 112.903 139.58 113.081 138.658 113.565L137.266 112.173L134.836 114.61L136.228 116.002C135.746 116.923 135.57 117.973 135.725 119.001C135.88 120.029 136.358 120.981 137.089 121.719Z" fill="#404040"/>
<path d="M126.156 120.688C126.156 124.087 127.164 127.41 129.053 130.236C130.942 133.063 133.626 135.266 136.766 136.566C139.907 137.867 143.363 138.208 146.697 137.545C150.031 136.881 153.093 135.244 155.497 132.841C157.105 131.247 158.381 129.352 159.254 127.264C160.128 125.175 160.579 122.935 160.584 120.672C160.589 118.408 160.147 116.166 159.283 114.074C158.419 111.982 157.151 110.081 155.55 108.481C153.95 106.88 152.049 105.612 149.957 104.748C147.865 103.884 145.623 103.442 143.359 103.447C141.096 103.452 138.856 103.904 136.767 104.777C134.679 105.65 132.784 106.927 131.19 108.534C129.589 110.126 128.32 112.02 127.456 114.107C126.592 116.193 126.15 118.43 126.156 120.688ZM143.344 106.938C146.525 106.938 149.608 108.041 152.067 110.059C154.526 112.077 156.209 114.885 156.829 118.005C157.45 121.125 156.969 124.364 155.469 127.17C153.97 129.975 151.544 132.174 148.605 133.391C145.666 134.608 142.396 134.769 139.351 133.845C136.307 132.922 133.678 130.971 131.91 128.326C130.143 125.681 129.348 122.505 129.659 119.339C129.971 116.174 131.371 113.214 133.621 110.965C134.895 109.684 136.41 108.668 138.079 107.977C139.748 107.286 141.537 106.933 143.344 106.938Z" fill="#404040"/>
<path d="M216.452 112.18L215.06 113.572C214.196 113.117 213.216 112.932 212.246 113.039C211.275 113.147 210.36 113.542 209.616 114.175C208.873 114.808 208.336 115.649 208.075 116.59C207.815 117.531 207.841 118.528 208.153 119.453L209.337 123.01C209.441 123.323 209.437 123.663 209.324 123.974C209.212 124.285 208.997 124.548 208.716 124.722C208.435 124.896 208.103 124.97 207.775 124.932C207.446 124.894 207.14 124.746 206.907 124.512L206.551 124.156C206.276 123.88 206.121 123.507 206.121 123.118C206.121 122.729 206.276 122.355 206.551 122.08L206.723 121.908L204.292 119.477L204.12 119.649C203.388 120.388 202.909 121.341 202.755 122.371C202.6 123.4 202.778 124.451 203.261 125.373L201.869 126.765L204.299 129.195L205.691 127.803C206.555 128.258 207.536 128.443 208.506 128.336C209.476 128.228 210.392 127.833 211.135 127.2C211.879 126.567 212.415 125.726 212.676 124.785C212.937 123.844 212.91 122.847 212.599 121.922L211.406 118.365C211.302 118.052 211.306 117.712 211.419 117.401C211.531 117.09 211.746 116.827 212.027 116.653C212.308 116.479 212.64 116.405 212.968 116.443C213.297 116.481 213.603 116.629 213.837 116.863L214.192 117.219C214.467 117.495 214.622 117.868 214.622 118.257C214.622 118.646 214.467 119.02 214.192 119.295L214.02 119.467L216.451 121.898L216.623 121.726C217.355 120.987 217.834 120.034 217.988 119.004C218.143 117.975 217.966 116.924 217.482 116.002L218.874 114.61L216.452 112.18Z" fill="#404040"/>
<path d="M210.375 103.5C206.399 103.5 202.545 104.879 199.471 107.401C196.397 109.924 194.293 113.434 193.518 117.334C192.742 121.234 193.342 125.282 195.217 128.789C197.091 132.296 200.124 135.045 203.797 136.567C207.471 138.088 211.559 138.289 215.364 137.135C219.169 135.981 222.456 133.543 224.666 130.236C226.875 126.93 227.869 122.96 227.48 119.003C227.09 115.046 225.34 111.346 222.528 108.534C220.936 106.933 219.042 105.664 216.956 104.8C214.87 103.936 212.633 103.494 210.375 103.5ZM220.098 130.41C217.849 132.66 214.889 134.06 211.723 134.372C208.557 134.684 205.381 133.888 202.736 132.121C200.091 130.354 198.141 127.724 197.217 124.68C196.294 121.636 196.454 118.365 197.672 115.426C198.889 112.487 201.087 110.061 203.893 108.562C206.698 107.062 209.937 106.582 213.057 107.202C216.177 107.823 218.985 109.506 221.004 111.965C223.022 114.424 224.125 117.506 224.125 120.687C224.13 122.494 223.777 124.283 223.085 125.952C222.394 127.621 221.379 129.137 220.098 130.41Z" fill="#404040"/>
<path d="M179.438 89.9992V88.0312H176V89.9992C175.068 90.2891 174.244 90.8514 173.634 91.6136C173.025 92.3758 172.657 93.3031 172.579 94.276C172.501 95.2489 172.716 96.2229 173.197 97.0725C173.677 97.9222 174.401 98.6086 175.275 99.0433L178.625 100.717C178.921 100.865 179.159 101.108 179.3 101.408C179.441 101.707 179.477 102.046 179.401 102.368C179.325 102.691 179.142 102.978 178.882 103.184C178.623 103.389 178.301 103.501 177.97 103.5H177.468C177.079 103.5 176.706 103.345 176.43 103.07C176.155 102.794 176 102.421 176 102.032V101.781H172.562V102.032C172.566 103.073 172.902 104.085 173.52 104.922C174.138 105.76 175.007 106.378 176 106.688V108.656H179.438V106.688C180.369 106.398 181.193 105.836 181.803 105.074C182.413 104.312 182.78 103.384 182.858 102.411C182.936 101.439 182.721 100.465 182.241 99.615C181.76 98.7653 181.037 98.0789 180.163 97.6442L176.813 95.9702C176.516 95.8229 176.278 95.5797 176.137 95.2799C175.996 94.9801 175.961 94.6415 176.037 94.3191C176.112 93.9966 176.295 93.7093 176.555 93.5039C176.815 93.2985 177.137 93.187 177.468 93.1875H177.97C178.359 93.188 178.732 93.3427 179.007 93.6179C179.282 93.8931 179.437 94.2662 179.438 94.6553V94.9062H182.875V94.6553C182.871 93.6147 182.536 92.6023 181.918 91.7651C181.3 90.9279 180.431 90.3093 179.438 89.9992Z" fill="#404040"/>
<path d="M194.906 98.3438C194.906 94.9444 193.898 91.6214 192.01 88.7949C190.121 85.9684 187.437 83.7655 184.296 82.4646C181.156 81.1637 177.7 80.8233 174.366 81.4865C171.032 82.1497 167.969 83.7866 165.565 86.1904C163.162 88.5941 161.525 91.6566 160.862 94.9906C160.198 98.3247 160.539 101.781 161.84 104.921C163.14 108.062 165.343 110.746 168.17 112.635C170.996 114.523 174.319 115.531 177.719 115.531C182.276 115.526 186.644 113.714 189.867 110.492C193.089 107.269 194.901 102.901 194.906 98.3438ZM177.719 112.094C174.999 112.094 172.341 111.287 170.08 109.776C167.818 108.266 166.056 106.118 165.015 103.606C163.975 101.093 163.702 98.3285 164.233 95.6613C164.764 92.994 166.073 90.544 167.996 88.621C169.919 86.6981 172.369 85.3885 175.036 84.858C177.704 84.3274 180.468 84.5997 182.981 85.6404C185.493 86.6811 187.641 88.4435 189.151 90.7047C190.662 92.9658 191.469 95.6243 191.469 98.3438C191.465 101.989 190.015 105.484 187.437 108.062C184.859 110.64 181.364 112.09 177.719 112.094Z" fill="#404040"/>
<path d="M177.719 118.969H174.281V139.594H177.719V118.969Z" fill="#404040"/>
<path d="M181.156 139.594H184.594V132.719C184.594 131.807 184.956 130.933 185.601 130.288C186.245 129.643 187.12 129.281 188.031 129.281V125.844C186.208 125.844 184.459 126.568 183.17 127.857C181.881 129.147 181.156 130.895 181.156 132.719V139.594Z" fill="#404040"/>
<path d="M170.844 139.594V129.281C170.844 127.458 170.119 125.709 168.83 124.42C167.541 123.131 165.792 122.406 163.969 122.406V125.844C164.88 125.844 165.755 126.206 166.399 126.851C167.044 127.495 167.406 128.37 167.406 129.281V139.594H170.844Z" fill="#404040"/>
<path d="M161.061 80.9844C158.711 83.2225 156.843 85.9163 155.57 88.901C154.296 91.8858 153.645 95.0988 153.656 98.3438C153.656 98.9659 153.68 99.583 153.727 100.195L157.154 99.9302C157.114 99.4077 157.094 98.8789 157.094 98.3438C157.084 95.5619 157.641 92.8073 158.732 90.2483C159.824 87.6893 161.425 85.3799 163.439 83.4611L161.061 80.9844Z" fill="#404040"/>
<path d="M131.312 84.5938H127.875V88.0312H131.312V84.5938Z" fill="#404040"/>
<path d="M143.344 93.1875H139.906V96.625H143.344V93.1875Z" fill="#404040"/>
<path d="M129.594 139.594H126.156V143.031H129.594V139.594Z" fill="#404040"/>
<path d="M227.562 139.594H224.125V143.031H227.562V139.594Z" fill="#404040"/>
<path d="M203.5 82.875H200.062V86.3125H203.5V82.875Z" fill="#404040"/>
<path d="M220.688 94.9062H217.25V98.3438H220.688V94.9062Z" fill="#404040"/>
</g>
</g>
<defs>
<clipPath id="clip0_15_611">
<rect width="240" height="220" fill="white"/>
</clipPath>
<clipPath id="clip1_15_611">
<rect width="121" height="118" fill="white" transform="translate(109 66)"/>
</clipPath>
</defs>
</svg>
