<svg width="240" height="220" viewBox="0 0 240 220" fill="none" xmlns="http://www.w3.org/2000/svg">
<g clip-path="url(#clip0_15_567)">
<path d="M144.375 147.875V169.945H41.9336L40.5664 152.855L99.8438 58.8125H122.207L97.9883 99.3398L68.4961 147.875H144.375ZM128.262 58.8125V201H100.137V58.8125H128.262Z" fill="#E0F0F3"/>
<path d="M222.487 125.26H201.127C200.318 125.26 199.662 125.916 199.662 126.725C199.662 127.534 200.318 128.19 201.127 128.19H222.487C225.014 128.19 227.07 130.246 227.07 132.773V141.951H132.93V132.773C132.93 130.246 134.986 128.19 137.513 128.19H193.634C194.443 128.19 195.098 127.534 195.098 126.725C195.098 125.916 194.443 125.26 193.634 125.26H137.513C133.37 125.26 130 128.631 130 132.773V194.033C130 198.176 133.37 201.546 137.513 201.546H191.224L190.629 202.962C190.351 203.621 190.347 204.349 190.617 205.011C190.887 205.673 191.398 206.19 192.057 206.468L196.83 208.476C198.192 209.048 199.763 208.407 200.336 207.047L201.219 204.946C202.117 205.023 203.018 205.027 203.916 204.961L204.777 207.072C205.046 207.734 205.558 208.251 206.217 208.528C206.876 208.806 207.604 208.81 208.266 208.54L213.061 206.585C213.723 206.315 214.24 205.804 214.518 205.145C214.795 204.486 214.799 203.758 214.529 203.096L213.855 201.443C214.022 201.509 214.204 201.546 214.394 201.546H222.487C226.629 201.546 230 198.176 230 194.033V176.054C230 175.245 229.344 174.589 228.535 174.589C227.726 174.589 227.07 175.245 227.07 176.054V194.033C227.07 196.561 225.014 198.617 222.487 198.617H221.158C221.169 198.592 221.182 198.569 221.193 198.544L223.201 193.771C223.773 192.411 223.132 190.838 221.772 190.266C221.772 190.266 221.772 190.266 221.772 190.266L219.671 189.382C219.748 188.485 219.753 187.584 219.686 186.685L221.797 185.825C222.459 185.555 222.976 185.043 223.253 184.384C223.531 183.725 223.535 182.997 223.265 182.336L221.31 177.54C221.04 176.878 220.528 176.361 219.869 176.084C219.21 175.806 218.482 175.803 217.821 176.072L215.71 176.933C215.129 176.244 214.496 175.603 213.814 175.015L214.698 172.914C215.27 171.554 214.629 169.981 213.269 169.409L208.496 167.401C207.135 166.828 205.563 167.47 204.991 168.83L204.107 170.93C203.21 170.854 202.309 170.849 201.41 170.916L200.55 168.805C200.28 168.143 199.768 167.625 199.109 167.348C198.45 167.071 197.722 167.067 197.061 167.337L192.265 169.291C191.603 169.562 191.086 170.073 190.809 170.732C190.531 171.391 190.527 172.119 190.797 172.78L191.658 174.892C190.969 175.472 190.328 176.105 189.74 176.787L187.639 175.903C186.279 175.331 184.706 175.972 184.134 177.332L182.126 182.105C181.553 183.466 182.194 185.038 183.554 185.611L185.655 186.495C185.579 187.392 185.574 188.293 185.641 189.191L183.53 190.052C182.868 190.322 182.35 190.833 182.073 191.492C181.796 192.151 181.792 192.879 182.062 193.541L184.017 198.336C184.056 198.434 184.102 198.527 184.152 198.617H137.513C134.986 198.617 132.93 196.561 132.93 194.034V144.881H227.07V168.656C227.07 169.465 227.726 170.121 228.535 170.121C229.344 170.121 230 169.465 230 168.656V132.773C230 128.631 226.63 125.26 222.487 125.26ZM187.768 191.488C188.391 191.234 188.761 190.589 188.665 189.924C188.469 188.552 188.477 187.163 188.687 185.795C188.79 185.131 188.427 184.483 187.808 184.222L184.924 183.008L186.736 178.702L189.62 179.915C190.24 180.176 190.957 179.981 191.36 179.444C192.19 178.337 193.178 177.361 194.296 176.542C194.838 176.145 195.041 175.43 194.787 174.807L193.605 171.909L197.932 170.145L199.113 173.043C199.367 173.665 200.013 174.034 200.677 173.94C202.05 173.744 203.438 173.752 204.806 173.962C205.47 174.065 206.119 173.702 206.379 173.083L207.593 170.199L211.9 172.011L210.686 174.895C210.426 175.514 210.62 176.231 211.157 176.635C212.264 177.465 213.24 178.453 214.06 179.571C214.457 180.113 215.172 180.315 215.794 180.062L218.693 178.88L220.456 183.207L217.558 184.389C216.936 184.642 216.566 185.287 216.661 185.952C216.857 187.324 216.85 188.713 216.639 190.081C216.537 190.745 216.899 191.394 217.519 191.654L220.403 192.868L218.591 197.175L215.707 195.961C215.087 195.7 214.37 195.895 213.967 196.432C213.136 197.539 212.148 198.516 211.03 199.334C210.488 199.732 210.286 200.447 210.539 201.069L211.721 203.967L207.395 205.731L206.213 202.833C205.986 202.276 205.445 201.921 204.857 201.921C204.788 201.921 204.719 201.926 204.649 201.936C203.277 202.132 201.888 202.124 200.521 201.914C199.858 201.811 199.208 202.174 198.947 202.793L197.734 205.677L193.427 203.865L194.64 200.981C194.896 200.373 194.712 199.672 194.196 199.265C194.032 199.022 193.797 198.831 193.52 198.721C192.678 198.007 191.922 197.199 191.267 196.305C190.87 195.763 190.155 195.56 189.532 195.814L186.634 196.996L184.87 192.669L187.768 191.488Z" fill="#404040"/>
<path d="M139.707 135.071C139.707 136.569 140.922 137.784 142.42 137.784C143.919 137.784 145.133 136.569 145.133 135.071C145.133 133.572 143.919 132.357 142.42 132.357C140.922 132.357 139.707 133.572 139.707 135.071Z" fill="#404040"/>
<path d="M148.053 135.071C148.053 136.569 149.268 137.784 150.767 137.784C152.265 137.784 153.48 136.569 153.48 135.071C153.48 133.572 152.265 132.357 150.767 132.357C149.268 132.357 148.053 133.572 148.053 135.071Z" fill="#404040"/>
<path d="M156.4 135.071C156.4 136.569 157.615 137.784 159.114 137.784C160.612 137.784 161.827 136.569 161.827 135.071C161.827 133.572 160.612 132.357 159.114 132.357C157.615 132.357 156.4 133.572 156.4 135.071Z" fill="#404040"/>
<path d="M176.868 153.503C176.868 151.618 175.334 150.085 173.45 150.085H151.87C151.061 150.085 150.405 150.741 150.405 151.55C150.405 152.359 151.061 153.015 151.87 153.015H173.45C173.719 153.015 173.938 153.234 173.938 153.503V168.92C173.938 169.19 173.719 169.409 173.45 169.409H140.459C140.189 169.409 139.97 169.19 139.97 168.92V153.503C139.97 153.234 140.189 153.015 140.459 153.015H144.378C145.187 153.015 145.843 152.359 145.843 151.55C145.843 150.741 145.187 150.085 144.378 150.085H140.459C138.574 150.085 137.041 151.618 137.041 153.503V168.92C137.041 170.805 138.574 172.338 140.459 172.338H173.45C175.334 172.338 176.868 170.805 176.868 168.92V153.503Z" fill="#404040"/>
<path d="M173.02 176.765H162.628C160.743 176.765 159.21 178.298 159.21 180.183V190.966C159.21 192.851 160.743 194.384 162.628 194.384H173.02C174.905 194.384 176.438 192.851 176.438 190.966V180.183C176.438 178.298 174.905 176.765 173.02 176.765ZM173.509 190.966C173.509 191.236 173.29 191.455 173.02 191.455H162.628C162.358 191.455 162.139 191.236 162.139 190.966V180.183C162.139 179.914 162.358 179.695 162.628 179.695H173.02C173.29 179.695 173.509 179.914 173.509 180.183V190.966Z" fill="#404040"/>
<path d="M153.34 178.329H139.713C138.904 178.329 138.248 178.985 138.248 179.794C138.248 180.603 138.904 181.259 139.713 181.259H153.34C154.149 181.259 154.805 180.603 154.805 179.794C154.805 178.985 154.149 178.329 153.34 178.329Z" fill="#404040"/>
<path d="M153.34 184.59H139.713C138.904 184.59 138.248 185.246 138.248 186.055C138.248 186.864 138.904 187.52 139.713 187.52H153.34C154.149 187.52 154.805 186.864 154.805 186.055C154.805 185.246 154.149 184.59 153.34 184.59Z" fill="#404040"/>
<path d="M220.329 151.754H212.593C211.784 151.754 211.128 152.41 211.128 153.219C211.128 154.028 211.784 154.684 212.593 154.684H220.329C221.138 154.684 221.794 154.028 221.794 153.219C221.794 152.41 221.138 151.754 220.329 151.754Z" fill="#404040"/>
<path d="M182.316 154.684H205.798C206.608 154.684 207.263 154.028 207.263 153.219C207.263 152.41 206.608 151.754 205.798 151.754H182.316C181.507 151.754 180.851 152.41 180.851 153.219C180.851 154.028 181.507 154.684 182.316 154.684Z" fill="#404040"/>
<path d="M182.316 160.946H220.329C221.138 160.946 221.794 160.29 221.794 159.481C221.794 158.672 221.138 158.016 220.329 158.016H182.316C181.507 158.016 180.851 158.672 180.851 159.481C180.851 160.29 181.507 160.946 182.316 160.946Z" fill="#404040"/>
<path d="M199.026 196.582C200.211 197.08 201.44 197.316 202.651 197.316C206.313 197.316 209.8 195.157 211.307 191.575C213.313 186.809 211.067 181.3 206.3 179.295C203.991 178.323 201.442 178.309 199.123 179.255C196.804 180.2 194.991 181.993 194.02 184.301C192.014 189.067 194.26 194.576 199.026 196.582ZM196.72 185.438C197.388 183.85 198.634 182.618 200.229 181.967C201.824 181.317 203.577 181.327 205.164 181.995C208.441 183.374 209.986 187.162 208.607 190.439C207.228 193.716 203.44 195.261 200.163 193.881C196.885 192.503 195.341 188.714 196.72 185.438Z" fill="#404040"/>
<path d="M202.663 190.06C203.835 190.06 204.785 189.11 204.785 187.938C204.785 186.766 203.835 185.816 202.663 185.816C201.491 185.816 200.541 186.766 200.541 187.938C200.541 189.11 201.491 190.06 202.663 190.06Z" fill="#404040"/>
</g>
<defs>
<clipPath id="clip0_15_567">
<rect width="240" height="220" fill="white"/>
</clipPath>
</defs>
</svg>
